<?xml version="1.0" encoding="utf-8"?>
<!-- Generator: Adobe Illustrator 24.1.2, SVG Export Plug-In . SVG Version: 6.00 Build 0)  -->
<svg version="1.1" id="Layer_1" xmlns="http://www.w3.org/2000/svg" xmlns:xlink="http://www.w3.org/1999/xlink" x="0px" y="0px"
	 viewBox="0 0 1366 454" enable-background="new 0 0 1366 454" xml:space="preserve">
<path fill="#F2D764" d="M472.5,161.5c0,0,60.7,57.6,114,74.6c53.3,17,172.5,67.9,318.9,27.4c146.4-40.5,330.8-39,387.6-18.3
	l-70.3,52.3l53,77.6c0,0-151.3-36.1-316,4.2S624,361.1,567.4,323.9c-56.6-37.1-138.6-79.5-154.6-71.2L472.5,161.5z"/>
<g>
	<defs>
		<path id="SVGID_5_" d="M471.5,165c0,0,61.2,57.1,114.6,73.6c53.4,16.5,173.1,66.3,319.1,24.5c146.1-41.8,330.5-42,387.4-21.8
			l-69.8,52.9l53.7,77.1c0,0-151.6-34.7-316,7.1s-335.8-15.2-392.7-51.8c-56.9-36.6-139.3-78.2-155.3-69.8L471.5,165z"/>
	</defs>
	<clipPath id="SVGID_1_">
		<use xlink:href="#SVGID_5_"  overflow="visible"/>
	</clipPath>
	<g clip-path="url(#SVGID_1_)">
		<g>
			<defs>
				<polygon id="SVGID_7_" points="1325.7,457.6 348.3,386.3 366.5,133.2 1343.9,205.4 				"/>
			</defs>
			<clipPath id="SVGID_2_">
				<use xlink:href="#SVGID_7_"  overflow="visible"/>
			</clipPath>
			<polygon clip-path="url(#SVGID_2_)" fill="#D8AD57" points="461.2,196.4 437.5,231.2 385.8,190.8 442.8,158.4 			"/>
			<polyline clip-path="url(#SVGID_2_)" fill="#DEBC5C" points="430.4,192.6 385.8,190.8 442.8,158.4 			"/>
			<polygon clip-path="url(#SVGID_2_)" fill="#D8AD57" points="539.4,202.1 515.7,237 463.9,196.6 521,164.2 			"/>
			<polyline clip-path="url(#SVGID_2_)" fill="#D4A154" points="515.7,237 463.9,196.6 508.6,197.7 			"/>
			<polyline clip-path="url(#SVGID_2_)" fill="#D4A154" points="437.2,231.2 385.5,190.8 430.1,191.9 			"/>
			<polygon clip-path="url(#SVGID_2_)" fill="#D8AD57" points="439.5,242 463.2,207.1 515,247.5 458,279.9 			"/>
			<polygon clip-path="url(#SVGID_2_)" fill="#D8AD57" points="361.3,236.2 385,201.3 436.8,241.7 379.8,274.2 			"/>
			<polygon clip-path="url(#SVGID_2_)" fill="#D8AD57" points="454.4,290.8 430.7,325.6 379,285.2 436,252.8 			"/>
			<polygon clip-path="url(#SVGID_2_)" fill="#D8AD57" points="532.6,296.5 508.9,331.4 457.1,291 514.2,258.6 			"/>
			<polygon clip-path="url(#SVGID_2_)" fill="#D8AD57" points="432.7,336.4 456.4,301.5 508.2,341.9 451.1,374.3 			"/>
			<polygon clip-path="url(#SVGID_2_)" fill="#D8AD57" points="354.5,330.6 378.2,295.8 430,336.2 373,368.5 			"/>
			<polygon clip-path="url(#SVGID_2_)" fill="#D8AD57" points="619.6,208.1 595.9,242.9 544.2,202.5 601.2,170.1 			"/>
			<polygon clip-path="url(#SVGID_2_)" fill="#D8AD57" points="697.8,213.8 674.1,248.7 622.4,208.2 679.4,175.9 			"/>
			<polygon clip-path="url(#SVGID_2_)" fill="#D8AD57" points="597.9,253.7 621.6,218.8 673.4,259.2 616.4,291.6 			"/>
			<polygon clip-path="url(#SVGID_2_)" fill="#D8AD57" points="519.7,247.9 543.4,213 595.2,253.4 538.2,285.8 			"/>
			<polygon clip-path="url(#SVGID_2_)" fill="#D8AD57" points="612.8,302.5 589.1,337.3 537.4,296.9 594.4,264.5 			"/>
			<polygon clip-path="url(#SVGID_2_)" fill="#D8AD57" points="691,308.2 667.3,343.1 615.5,302.7 672.6,270.3 			"/>
			<polygon clip-path="url(#SVGID_2_)" fill="#D8AD57" points="591.1,348.1 614.8,313.2 666.6,353.6 609.6,386 			"/>
			<polygon clip-path="url(#SVGID_2_)" fill="#D8AD57" points="512.9,342.3 536.6,307.4 588.4,347.9 531.4,380.3 			"/>
			<polygon clip-path="url(#SVGID_2_)" fill="#D8AD57" points="778,219.8 754.4,254.6 702.6,214.2 759.6,181.8 			"/>
			<polygon clip-path="url(#SVGID_2_)" fill="#D8AD57" points="856.2,225.5 832.5,260.4 780.8,219.9 837.8,187.5 			"/>
			<polygon clip-path="url(#SVGID_2_)" fill="#D8AD57" points="756.3,265.3 780,230.5 831.8,270.9 774.8,303.3 			"/>
			<polygon clip-path="url(#SVGID_2_)" fill="#D8AD57" points="678.1,259.6 701.8,224.7 753.6,265.1 696.6,297.5 			"/>
			<polygon clip-path="url(#SVGID_2_)" fill="#D8AD57" points="771.2,314.2 747.5,349 695.8,308.6 752.8,276.2 			"/>
			<polygon clip-path="url(#SVGID_2_)" fill="#D8AD57" points="849.4,319.9 825.7,354.8 774,314.4 831,282 			"/>
			<polygon clip-path="url(#SVGID_2_)" fill="#D29F54" points="849.5,318.7 833.4,317.2 819.5,316.5 831,282 			"/>
			<polygon clip-path="url(#SVGID_2_)" fill="#D29F54" points="771.5,312.9 755.4,311.5 740.5,310.6 753,276.2 			"/>
			<polygon clip-path="url(#SVGID_2_)" fill="#D29F54" points="691.6,307.1 675.5,305.6 660.6,304.8 673,270.3 			"/>
			<polygon clip-path="url(#SVGID_2_)" fill="#D29F54" points="612.6,301.2 595.5,299.7 580.6,298.9 594.1,264.5 			"/>
			<polygon clip-path="url(#SVGID_2_)" fill="#D29F54" points="532.7,295.3 516.6,293.9 501.7,293 514.2,258.6 			"/>
			<polygon clip-path="url(#SVGID_2_)" fill="#D29F54" points="454.7,289.6 438.6,288.1 423.7,287.3 436.2,252.8 			"/>
			<polygon clip-path="url(#SVGID_2_)" fill="#D29F54" points="461.5,195.5 445.4,194 430.5,193.2 443,158.8 			"/>
			<polygon clip-path="url(#SVGID_2_)" fill="#D29F54" points="539.1,201.2 522.9,199.7 508,198.9 520.5,164.5 			"/>
			<polygon clip-path="url(#SVGID_2_)" fill="#D29F54" points="619.8,207.2 603.7,205.7 588.8,204.9 601.3,170.4 			"/>
			<polygon clip-path="url(#SVGID_2_)" fill="#D29F54" points="698.1,212.9 682,211.5 667.1,210.7 679.6,176.2 			"/>
			<polygon clip-path="url(#SVGID_2_)" fill="#D29F54" points="777.4,218.8 761.2,217.3 746.4,216.5 758.9,182.1 			"/>
			<polygon clip-path="url(#SVGID_2_)" fill="#D29F54" points="856.1,224.6 840,223.1 825.1,222.3 837.5,187.9 			"/>
			<polygon clip-path="url(#SVGID_2_)" fill="#D8AD57" points="749.5,359.8 773.2,324.9 824.9,365.3 768,397.7 			"/>
			<polygon clip-path="url(#SVGID_2_)" fill="#D8AD57" points="671.3,354 695,319.2 746.8,359.6 689.8,391.9 			"/>
			<polygon clip-path="url(#SVGID_2_)" fill="#D8AD57" points="936.4,231.4 912.7,266.3 861,225.9 918,193.5 			"/>
			<polygon clip-path="url(#SVGID_2_)" fill="#D8AD57" points="1014.6,237.2 990.9,272 939.2,231.6 996.2,199.2 			"/>
			<polygon clip-path="url(#SVGID_2_)" fill="#D8AD57" points="914.7,277 938.4,242.2 990.2,282.6 933.2,315 			"/>
			<polygon clip-path="url(#SVGID_2_)" fill="#D8AD57" points="836.5,271.3 860.3,236.4 912,276.8 855,309.2 			"/>
			<polygon clip-path="url(#SVGID_2_)" fill="#CF9352" points="836.5,271.3 877.3,274.5 912,276.8 855,309.2 			"/>
			<polygon clip-path="url(#SVGID_2_)" fill="#CF9352" points="756.5,265.3 797.4,268.6 832,270.9 775,303.3 			"/>
			<polygon clip-path="url(#SVGID_2_)" fill="#CF9352" points="679.4,259.7 720.2,263 754.9,265.2 697.9,297.6 			"/>
			<polygon clip-path="url(#SVGID_2_)" fill="#CF9352" points="597,253.6 637.8,256.9 672.4,259.1 615.4,291.5 			"/>
			<polygon clip-path="url(#SVGID_2_)" fill="#CF9352" points="519.9,247.9 560.7,251.2 595.4,253.5 538.4,285.9 			"/>
			<polygon clip-path="url(#SVGID_2_)" fill="#D8AD57" points="929.6,325.9 905.9,360.7 854.2,320.3 911.2,287.9 			"/>
			<polygon clip-path="url(#SVGID_2_)" fill="#D8AD57" points="1007.8,331.6 984.1,366.4 932.3,326 989.4,293.7 			"/>
			<polygon clip-path="url(#SVGID_2_)" fill="#D8AD57" points="907.9,371.4 931.6,336.6 983.4,377 926.4,409.4 			"/>
			<polygon clip-path="url(#SVGID_2_)" fill="#D8AD57" points="829.7,365.7 853.4,330.8 905.2,371.2 848.2,403.6 			"/>
			<polygon clip-path="url(#SVGID_2_)" fill="#D8AD57" points="1094.9,243.1 1071.1,278 1019.4,237.6 1076.4,205.2 			"/>
			<polygon clip-path="url(#SVGID_2_)" fill="#D8AD57" points="1173,248.9 1149.3,283.7 1097.6,243.3 1154.6,210.9 			"/>
			<polygon clip-path="url(#SVGID_2_)" fill="#D8AD57" points="1073.1,288.7 1096.8,253.9 1148.6,294.3 1091.6,326.7 			"/>
			<polygon clip-path="url(#SVGID_2_)" fill="#D8AD57" points="994.9,282.9 1018.7,248.1 1070.4,288.5 1013.4,320.9 			"/>
			<polygon clip-path="url(#SVGID_2_)" fill="#D8AD57" points="1088.1,337.5 1064.3,372.4 1012.6,332 1069.6,299.6 			"/>
			<polygon clip-path="url(#SVGID_2_)" fill="#D8AD57" points="1166.2,343.3 1142.5,378.1 1090.8,337.7 1147.8,305.3 			"/>
			<polygon clip-path="url(#SVGID_2_)" fill="#D8AD57" points="1066.3,383.1 1090,348.3 1141.8,388.7 1084.8,421.1 			"/>
			<polygon clip-path="url(#SVGID_2_)" fill="#D8AD57" points="988.1,377.4 1011.9,342.5 1063.6,382.9 1006.6,415.3 			"/>
			<polygon clip-path="url(#SVGID_2_)" fill="#D8AD57" points="1253.3,254.8 1229.5,289.6 1177.8,249.3 1234.8,216.8 			"/>
			<polygon clip-path="url(#SVGID_2_)" fill="#D8AD57" points="1331.4,260.6 1307.7,295.4 1256,255 1313,222.6 			"/>
			<polygon clip-path="url(#SVGID_2_)" fill="#D8AD57" points="1231.5,300.4 1255.2,265.6 1307,306 1250,338.4 			"/>
			<polygon clip-path="url(#SVGID_2_)" fill="#D8AD57" points="1153.4,294.6 1177.1,259.8 1228.8,300.2 1171.8,332.6 			"/>
			<polygon clip-path="url(#SVGID_2_)" fill="#D8AD57" points="1246.4,349.2 1222.7,384.1 1171,343.7 1228,311.3 			"/>
			<polygon clip-path="url(#SVGID_2_)" fill="#D8AD57" points="1324.6,355 1300.9,389.8 1249.2,349.4 1306.2,317 			"/>
			<polygon clip-path="url(#SVGID_2_)" fill="#D8AD57" points="1224.7,394.8 1248.4,360 1300.2,400.4 1243.2,432.8 			"/>
			<polygon clip-path="url(#SVGID_2_)" fill="#D8AD57" points="1146.5,389 1170.2,354.2 1222,394.6 1165,427 			"/>
			<polyline clip-path="url(#SVGID_2_)" fill="#D4A154" points="597.1,243 545.4,202.6 590,203.7 			"/>
			<polyline clip-path="url(#SVGID_2_)" fill="#D4A154" points="674.6,248.7 622.8,208.3 667.5,209.4 			"/>
			<polyline clip-path="url(#SVGID_2_)" fill="#D4A154" points="753.9,254.5 702.2,214.2 746.8,215.3 			"/>
			<polyline clip-path="url(#SVGID_2_)" fill="#D4A154" points="833.2,260.4 781.5,220 826.1,221.1 			"/>
			<polyline clip-path="url(#SVGID_2_)" fill="#D4A154" points="912.5,266.3 860.7,225.8 905.4,226.9 			"/>
			<polyline clip-path="url(#SVGID_2_)" fill="#D4A154" points="991.8,272.1 940,231.7 984.7,232.8 			"/>
			<polyline clip-path="url(#SVGID_2_)" fill="#D4A154" points="1071,278 1019.3,237.5 1063.9,238.7 			"/>
			<polyline clip-path="url(#SVGID_2_)" fill="#D4A154" points="1150.3,283.8 1098.6,243.4 1143.2,244.5 			"/>
			<polyline clip-path="url(#SVGID_2_)" fill="#D4A154" points="1229.6,289.7 1177.9,249.3 1222.5,250.4 			"/>
			<polyline clip-path="url(#SVGID_2_)" fill="#D4A154" points="1308.9,295.5 1257.1,255.1 1301.8,256.2 			"/>
			<polyline clip-path="url(#SVGID_2_)" fill="#DEBC5C" points="509.1,198.4 464.5,196.6 521.4,164.2 			"/>
			<polyline clip-path="url(#SVGID_2_)" fill="#DEBC5C" points="588.4,204.2 543.8,202.5 600.8,170.1 			"/>
			<polyline clip-path="url(#SVGID_2_)" fill="#DEBC5C" points="667.4,210.1 622.8,208.3 679.8,175.9 			"/>
			<polyline clip-path="url(#SVGID_2_)" fill="#DEBC5C" points="746.5,215.9 701.9,214.1 758.9,181.7 			"/>
			<polyline clip-path="url(#SVGID_2_)" fill="#DEBC5C" points="825.5,221.7 780.9,220 837.9,187.6 			"/>
			<polyline clip-path="url(#SVGID_2_)" fill="#DEBC5C" points="904.6,227.6 860,225.8 917,193.4 			"/>
			<polyline clip-path="url(#SVGID_2_)" fill="#DEBC5C" points="983.7,233.4 939.1,231.6 996,199.2 			"/>
			<polyline clip-path="url(#SVGID_2_)" fill="#DEBC5C" points="1062.7,239.2 1018.1,237.5 1075.1,205.1 			"/>
			<polyline clip-path="url(#SVGID_2_)" fill="#DEBC5C" points="1141.8,245.1 1097.2,243.3 1154.2,210.9 			"/>
			<polyline clip-path="url(#SVGID_2_)" fill="#DEBC5C" points="1220.9,250.9 1176.2,249.1 1233.2,216.7 			"/>
			<polyline clip-path="url(#SVGID_2_)" fill="#DEBC5C" points="1299.9,256.7 1255.3,255 1312.3,222.6 			"/>
			<polyline clip-path="url(#SVGID_2_)" fill="#DEBC5C" points="423.2,287.4 378.6,285.6 435.6,253.2 			"/>
			<polyline clip-path="url(#SVGID_2_)" fill="#D4A154" points="430.1,326 378.3,285.5 423,286.7 			"/>
			<polyline clip-path="url(#SVGID_2_)" fill="#DEBC5C" points="501.8,293.2 457.2,291.4 514.2,259 			"/>
			<polyline clip-path="url(#SVGID_2_)" fill="#D4A154" points="508.6,331.8 456.9,291.4 501.5,292.4 			"/>
			<polyline clip-path="url(#SVGID_2_)" fill="#DEBC5C" points="581.6,299 537,297.2 594,264.9 			"/>
			<polyline clip-path="url(#SVGID_2_)" fill="#D4A154" points="588.4,337.6 536.7,297.2 581.3,298.4 			"/>
			<polyline clip-path="url(#SVGID_2_)" fill="#DEBC5C" points="660.9,304.9 616.3,303.1 673.3,270.7 			"/>
			<polyline clip-path="url(#SVGID_2_)" fill="#D4A154" points="667.7,343.5 616,303.1 660.6,304.2 			"/>
			<polyline clip-path="url(#SVGID_2_)" fill="#DEBC5C" points="740.2,310.7 695.6,309 752.6,276.6 			"/>
			<polyline clip-path="url(#SVGID_2_)" fill="#D4A154" points="747,349.3 695.3,308.9 739.9,310.1 			"/>
			<polyline clip-path="url(#SVGID_2_)" fill="#DEBC5C" points="819.5,316.6 774.9,314.8 831.9,282.4 			"/>
			<polyline clip-path="url(#SVGID_2_)" fill="#D4A154" points="826.3,355.2 774.6,314.8 819.5,316.5 			"/>
			<polyline clip-path="url(#SVGID_2_)" fill="#DEBC5C" points="898.8,322.5 854.2,320.7 911.2,288.2 			"/>
			<polyline clip-path="url(#SVGID_2_)" fill="#D4A154" points="905.6,361 853.9,320.6 898.5,321.7 			"/>
			<polyline clip-path="url(#SVGID_2_)" fill="#DEBC5C" points="977.4,327.9 932.8,326.2 989.8,293.8 			"/>
			<polyline clip-path="url(#SVGID_2_)" fill="#D4A154" points="984.2,366.5 932.5,326.1 977.1,327.2 			"/>
			<polyline clip-path="url(#SVGID_2_)" fill="#DEBC5C" points="1057.4,334.2 1012.8,332.3 1069.8,300 			"/>
			<polyline clip-path="url(#SVGID_2_)" fill="#D4A154" points="1064.2,372.7 1012.5,332.3 1057.1,333.4 			"/>
			<polyline clip-path="url(#SVGID_2_)" fill="#DEBC5C" points="1215.1,345.8 1170.5,344 1227.5,311.6 			"/>
			<polyline clip-path="url(#SVGID_2_)" fill="#D4A154" points="1222,384.4 1170.2,344 1215,343.9 			"/>
			<polyline clip-path="url(#SVGID_2_)" fill="#DEBC5C" points="1135.9,339.9 1091.2,338.1 1148.2,305.8 			"/>
			<polyline clip-path="url(#SVGID_2_)" fill="#D4A154" points="1142.7,378.5 1090.9,338.1 1135.6,339.3 			"/>
			<polyline clip-path="url(#SVGID_2_)" fill="#DEBC5C" points="1293.9,351.6 1249.2,349.8 1306.2,317.4 			"/>
			<polyline clip-path="url(#SVGID_2_)" fill="#D4A154" points="1300.7,390.2 1248.9,349.8 1293.6,350.9 			"/>
			<polyline clip-path="url(#SVGID_2_)" fill="#E7C25D" points="519.9,247.9 543.7,213 546,249.8 			"/>
			<polyline clip-path="url(#SVGID_2_)" fill="#D39E54" points="546,249.8 538.4,285.9 519.9,247.9 			"/>
			<polygon clip-path="url(#SVGID_2_)" fill="#CF9352" points="439,241.9 479.8,245.2 514.5,247.5 457.5,279.9 			"/>
			<polyline clip-path="url(#SVGID_2_)" fill="#E7C25D" points="439.1,241.9 462.8,207.1 465.1,243.8 			"/>
			<polyline clip-path="url(#SVGID_2_)" fill="#D39E54" points="465.1,243.8 457.5,279.9 439.1,241.9 			"/>
			<polygon clip-path="url(#SVGID_2_)" fill="#CF9352" points="363,236.3 403.8,239.6 438.4,241.9 381.4,274.3 			"/>
			<polyline clip-path="url(#SVGID_2_)" fill="#E7C25D" points="363,236.3 386.7,201.5 389.1,238.2 			"/>
			<polyline clip-path="url(#SVGID_2_)" fill="#D39E54" points="389.1,238.2 381.4,274.3 363,236.3 			"/>
			<polyline clip-path="url(#SVGID_2_)" fill="#E7C25D" points="597.9,254.1 621.6,219.2 624,256 			"/>
			<polyline clip-path="url(#SVGID_2_)" fill="#D39E54" points="624,256 616.3,292 597.9,254.1 			"/>
			<polyline clip-path="url(#SVGID_2_)" fill="#E7C25D" points="678.3,260 702,225.2 704.4,261.9 			"/>
			<polyline clip-path="url(#SVGID_2_)" fill="#D39E54" points="704.4,261.9 696.8,298 678.3,260 			"/>
			<polyline clip-path="url(#SVGID_2_)" fill="#E7C25D" points="756.3,265.7 780,230.9 782.4,267.7 			"/>
			<polyline clip-path="url(#SVGID_2_)" fill="#D39E54" points="782.4,267.7 774.7,303.7 756.3,265.7 			"/>
			<polyline clip-path="url(#SVGID_2_)" fill="#E7C25D" points="836.5,271.7 860.2,236.8 862.5,273.6 			"/>
			<polyline clip-path="url(#SVGID_2_)" fill="#D39E54" points="862.5,273.6 854.9,309.6 836.5,271.7 			"/>
			<polygon clip-path="url(#SVGID_2_)" fill="#CF9352" points="915.2,277.1 956,280.4 990.7,282.6 933.7,315 			"/>
			<polyline clip-path="url(#SVGID_2_)" fill="#E7C25D" points="915.1,277.5 938.9,242.6 941.2,279.4 			"/>
			<polyline clip-path="url(#SVGID_2_)" fill="#D39E54" points="941.2,279.4 933.6,315.4 915.1,277.5 			"/>
			<polygon clip-path="url(#SVGID_2_)" fill="#CF9352" points="994.9,282.9 1035.7,286.2 1070.4,288.5 1013.4,320.9 			"/>
			<polyline clip-path="url(#SVGID_2_)" fill="#E7C25D" points="994.8,283.4 1018.5,248.5 1020.9,285.3 			"/>
			<polyline clip-path="url(#SVGID_2_)" fill="#D39E54" points="1020.9,285.3 1013.3,321.3 994.8,283.4 			"/>
			<polygon clip-path="url(#SVGID_2_)" fill="#CF9352" points="1073,288.7 1113.9,292 1148.5,294.3 1091.5,326.7 			"/>
			<polyline clip-path="url(#SVGID_2_)" fill="#E7C25D" points="1073,289.1 1096.7,254.3 1099,291 			"/>
			<polyline clip-path="url(#SVGID_2_)" fill="#D39E54" points="1099,291 1091.4,327.1 1073,289.1 			"/>
			<polygon clip-path="url(#SVGID_2_)" fill="#CF9352" points="1153.1,294.6 1193.9,297.9 1228.6,300.2 1171.6,332.6 			"/>
			<polyline clip-path="url(#SVGID_2_)" fill="#E7C25D" points="1153,295 1176.7,260.2 1179.1,297 			"/>
			<polyline clip-path="url(#SVGID_2_)" fill="#D39E54" points="1179.1,297 1171.5,333 1153,295 			"/>
			<polygon clip-path="url(#SVGID_2_)" fill="#CF9352" points="1231.7,300.4 1272.5,303.7 1307.1,306 1250.1,338.4 			"/>
			<polyline clip-path="url(#SVGID_2_)" fill="#E7C25D" points="1231.6,300.8 1255.3,266 1257.7,302.7 			"/>
			<polyline clip-path="url(#SVGID_2_)" fill="#D39E54" points="1257.7,302.7 1250,338.8 1231.6,300.8 			"/>
			<polygon clip-path="url(#SVGID_2_)" fill="#CF9352" points="829.7,365.8 870.5,369 905.2,371.3 848.2,403.7 			"/>
			<polygon clip-path="url(#SVGID_2_)" fill="#CF9352" points="749.7,359.9 790.5,363.2 825.2,365.5 768.2,397.8 			"/>
			<polygon clip-path="url(#SVGID_2_)" fill="#CF9352" points="672.6,354.2 713.4,357.5 748.1,359.8 691,392.1 			"/>
			<polygon clip-path="url(#SVGID_2_)" fill="#CF9352" points="590.1,348.1 631,351.4 665.6,353.7 608.6,386 			"/>
			<polygon clip-path="url(#SVGID_2_)" fill="#CF9352" points="513.1,342.4 553.9,345.7 588.5,348 531.5,380.4 			"/>
			<polyline clip-path="url(#SVGID_2_)" fill="#E7C25D" points="513.1,342.4 536.8,307.6 539.2,344.3 			"/>
			<polyline clip-path="url(#SVGID_2_)" fill="#D39E54" points="539.2,344.3 531.6,380.4 513.1,342.4 			"/>
			<polygon clip-path="url(#SVGID_2_)" fill="#CF9352" points="432.2,336.5 473,339.7 507.7,342 450.7,374.4 			"/>
			<polyline clip-path="url(#SVGID_2_)" fill="#E7C25D" points="432.2,336.5 455.9,301.6 458.3,338.4 			"/>
			<polyline clip-path="url(#SVGID_2_)" fill="#D39E54" points="458.3,338.4 450.7,374.4 432.2,336.5 			"/>
			<polygon clip-path="url(#SVGID_2_)" fill="#CF9352" points="356.1,330.8 397,334.1 431.6,336.4 374.6,368.8 			"/>
			<polyline clip-path="url(#SVGID_2_)" fill="#E7C25D" points="356.2,330.8 379.9,296 382.3,332.7 			"/>
			<polyline clip-path="url(#SVGID_2_)" fill="#D39E54" points="382.3,332.7 374.6,368.8 356.2,330.8 			"/>
			<polyline clip-path="url(#SVGID_2_)" fill="#E7C25D" points="591.1,348.5 614.8,313.7 617.1,350.5 			"/>
			<polyline clip-path="url(#SVGID_2_)" fill="#D39E54" points="617.1,350.5 609.5,386.5 591.1,348.5 			"/>
			<polyline clip-path="url(#SVGID_2_)" fill="#E7C25D" points="671.5,354.5 695.2,319.6 697.6,356.4 			"/>
			<polyline clip-path="url(#SVGID_2_)" fill="#D39E54" points="697.6,356.4 689.9,392.5 671.5,354.5 			"/>
			<polyline clip-path="url(#SVGID_2_)" fill="#E7C25D" points="749.4,360.3 773.2,325.4 775.5,362.2 			"/>
			<polyline clip-path="url(#SVGID_2_)" fill="#D39E54" points="775.5,362.2 767.9,398.2 749.4,360.3 			"/>
			<polyline clip-path="url(#SVGID_2_)" fill="#E7C25D" points="829.6,366.2 853.3,331.3 855.7,368.1 			"/>
			<polyline clip-path="url(#SVGID_2_)" fill="#D39E54" points="855.7,368.1 848.1,404.1 829.6,366.2 			"/>
			<polygon clip-path="url(#SVGID_2_)" fill="#CF9352" points="908.4,371.6 949.2,374.9 983.9,377.1 926.9,409.5 			"/>
			<polyline clip-path="url(#SVGID_2_)" fill="#E7C25D" points="908.3,372 932,337.1 934.4,373.9 			"/>
			<polyline clip-path="url(#SVGID_2_)" fill="#D39E54" points="934.4,373.9 926.8,409.9 908.3,372 			"/>
			<polygon clip-path="url(#SVGID_2_)" fill="#CF9352" points="988.1,377.5 1028.9,380.7 1063.6,383 1006.6,415.4 			"/>
			<polyline clip-path="url(#SVGID_2_)" fill="#E7C25D" points="988,377.9 1011.7,343 1014.1,379.8 			"/>
			<polyline clip-path="url(#SVGID_2_)" fill="#D39E54" points="1014.1,379.8 1006.5,415.8 988,377.9 			"/>
			<polygon clip-path="url(#SVGID_2_)" fill="#CF9352" points="1066.2,383.2 1107,386.5 1141.7,388.8 1084.7,421.2 			"/>
			<polyline clip-path="url(#SVGID_2_)" fill="#E7C25D" points="1066.1,383.6 1089.8,348.8 1092.2,385.6 			"/>
			<polyline clip-path="url(#SVGID_2_)" fill="#D39E54" points="1092.2,385.6 1084.6,421.6 1066.1,383.6 			"/>
			<polygon clip-path="url(#SVGID_2_)" fill="#CF9352" points="1146.3,389.1 1187.1,392.4 1221.8,394.7 1164.7,427.1 			"/>
			<polyline clip-path="url(#SVGID_2_)" fill="#E7C25D" points="1146.2,389.5 1169.9,354.7 1172.3,391.5 			"/>
			<polyline clip-path="url(#SVGID_2_)" fill="#D39E54" points="1172.3,391.5 1164.7,427.5 1146.2,389.5 			"/>
			<polygon clip-path="url(#SVGID_2_)" fill="#CF9352" points="1224.9,394.9 1265.7,398.2 1300.3,400.5 1243.3,432.9 			"/>
			<polyline clip-path="url(#SVGID_2_)" fill="#E7C25D" points="1224.8,395.3 1248.5,360.5 1250.9,397.3 			"/>
			<polyline clip-path="url(#SVGID_2_)" fill="#D39E54" points="1250.9,397.3 1243.2,433.3 1224.8,395.3 			"/>
			<polygon clip-path="url(#SVGID_2_)" fill="#D29F54" points="928.9,324.6 912.8,323.1 898.9,322.3 910.4,287.8 			"/>
			<polygon clip-path="url(#SVGID_2_)" fill="#D29F54" points="1008.4,330.4 992.2,329 978.3,328.2 989.8,293.7 			"/>
			<polygon clip-path="url(#SVGID_2_)" fill="#D29F54" points="1087.8,336.3 1071.6,334.8 1057.7,334.1 1069.2,299.5 			"/>
			<polygon clip-path="url(#SVGID_2_)" fill="#D29F54" points="1167.2,342.1 1151.1,340.7 1136.2,339.9 1148.7,305.4 			"/>
			<polygon clip-path="url(#SVGID_2_)" fill="#D29F54" points="1246.6,348 1230.5,346.5 1214.7,344.4 1228.1,311.3 			"/>
			<polygon clip-path="url(#SVGID_2_)" fill="#D29F54" points="1326,353.9 1309.9,352.4 1296,351.6 1307.5,317.1 			"/>
			<polygon clip-path="url(#SVGID_2_)" fill="#D29F54" points="936.2,230.5 920.1,229.1 905.2,228.2 917.7,193.8 			"/>
			<polygon clip-path="url(#SVGID_2_)" fill="#D29F54" points="1014.5,236.3 998.4,234.8 983.5,234 995.9,199.6 			"/>
			<polygon clip-path="url(#SVGID_2_)" fill="#D29F54" points="1094.8,242.2 1078.7,240.8 1063.8,239.9 1076.2,205.5 			"/>
			<polygon clip-path="url(#SVGID_2_)" fill="#D29F54" points="1173.1,248 1157,246.5 1142.1,245.7 1154.6,211.3 			"/>
			<polygon clip-path="url(#SVGID_2_)" fill="#D29F54" points="1252.6,253.9 1236.5,252.4 1221.6,251.6 1234.1,217.1 			"/>
			<polygon clip-path="url(#SVGID_2_)" fill="#D29F54" points="1330.9,259.6 1314.8,258.2 1299.9,257.4 1312.4,222.9 			"/>
		</g>
	</g>
	<use xlink:href="#SVGID_5_"  overflow="visible" fill="none" stroke="#E6B95D" stroke-miterlimit="10"/>
</g>
<g>
	<g>
		<g>
			<polygon fill="#909090" points="410.4,256.5 412,255.3 356.8,207.8 476,162.2 475.1,160.5 353,207.3 			"/>
		</g>
		<g>
			<path fill="#927D62" d="M411.3,257.7c0.7,0,1.4-0.4,1.8-0.9L478,161c0.6-0.9,0.2-2-0.8-2.5c-1.1-0.5-2.4-0.1-3,0.7L409.3,255
				c-0.6,0.9-0.2,2,0.8,2.5C410.5,257.7,410.9,257.7,411.3,257.7z"/>
		</g>
	</g>
</g>
<path fill="none" stroke="#BC0055" stroke-width="3" stroke-linecap="round" stroke-linejoin="round" stroke-miterlimit="10" d="
	M472.5,161.5c0,0,60.7,57.6,114,74.6c53.3,17,172.5,67.9,318.9,27.4c146.4-40.5,330.8-39,387.6-18.3l-70.3,52.3l53,77.6
	c0,0-151.3-36.1-316,4.2S624,361.1,567.4,323.9c-56.6-37.1-138.6-79.5-154.6-71.2L472.5,161.5z"/>
<g>
	<g>
		<path fill="#CECDCD" d="M121.9,174.5c-0.1,20.1,10.3,36.5,23.2,36.5c12.9,0.1,23.4-16.2,23.5-36.3c0.1-20.1-10.3-36.5-23.1-36.6
			C132.5,138.1,122,154.3,121.9,174.5z"/>
		<path fill="#E2E1E1" d="M119.7,174.5c0.1-21.3,11.6-38.6,25.7-38.5c14.1,0.1,25.4,17.5,25.4,38.8c-0.1,21.3-11.6,38.6-25.7,38.5
			C131,213.2,119.6,195.8,119.7,174.5z M124.2,174.5c-0.1,18.9,9.3,34.3,20.9,34.3c11.6,0.1,21.2-15.3,21.2-34.1
			c0.1-18.9-9.3-34.3-20.9-34.3C133.8,140.3,124.2,155.6,124.2,174.5z"/>
	</g>
	<g>
		<path fill="#6B7150" d="M203.9,244.8c0,5.9,4.8,10.8,10.7,10.8c5.9,0,10.7-4.8,10.8-10.7c0-5.9-4.8-10.7-10.7-10.8
			C208.7,234.1,203.9,238.8,203.9,244.8z"/>
	</g>
	<g>
		<path fill="#6B7150" d="M353.6,215.3c0,4.4,3.5,8,7.9,8c4.4,0,8-3.5,8-7.9c0-4.4-3.5-8-7.9-8C357.2,207.4,353.7,210.9,353.6,215.3
			z"/>
	</g>
	<g>
		<path fill="#232220" d="M351.4,215.3c0,5.6,4.5,10.2,10.2,10.3c5.6,0,10.2-4.5,10.3-10.2c0-5.6-4.5-10.2-10.2-10.3
			C356,205.1,351.4,209.7,351.4,215.3z M355.4,215.4c0-3.4,2.8-6.2,6.2-6.2c3.4,0,6.2,2.8,6.2,6.2c0,3.4-2.8,6.2-6.2,6.2
			C358.2,221.6,355.4,218.8,355.4,215.4z"/>
	</g>
	<g>
		<path fill="#232220" d="M201.5,244.7c0,7.3,5.8,13.2,13.1,13.2c7.2,0,13.2-5.8,13.2-13.1s-5.8-13.2-13.1-13.2
			C207.4,231.6,201.5,237.5,201.5,244.7z M205.9,244.8c0-4.8,3.9-8.7,8.7-8.6c4.8,0,8.7,3.9,8.6,8.7c0,4.8-3.9,8.7-8.7,8.6
			C209.8,253.5,205.9,249.6,205.9,244.8z"/>
	</g>
	<g>
		<path fill="#646D2C" d="M357.5,167.7c0,0,21-15.8,30.8-10c9.8,5.8-17.5,27.7-17.5,27.7L357.5,167.7z"/>
	</g>
	<g>
		<path fill="#809030" d="M106.3,293.9c-9.3,8.1-10.6,18.2-2.1,18.3c0,0,34.2,2.5,36.7,0.2c2.5-2.3,11.6-10.5,19.4-19l164-166.4
			c8.9-9.7,25.6-22.1,17.1-22.2l-31.3-0.1c-8.5,0-19.7,5.2-29.8,15.2L106.3,293.9z"/>
	</g>
	<g>
		<path fill="#646D2C" d="M106.3,293.9c-9.3,8.1-10.6,18.2-2.1,18.3c0,0,34.2,2.5,36.7,0.2c2.5-2.3,19.4-19,19.4-19
			c-8.9-8.6,130.1-183.5,120-173.5L106.3,293.9z"/>
	</g>
	<g>
		<path fill="#5A4221" d="M323.1,119.2c0.1,0,0.2,0,0.3,0c1.2-0.2,2-1.3,1.9-2.5L317,62.3c-0.2-1.2-1.3-2-2.5-1.9
			c-1.2,0.2-2,1.3-1.9,2.5l8.2,54.3C321,118.4,322,119.2,323.1,119.2z"/>
	</g>
	<g>
		<path fill="#5A4221" d="M298.3,119.1c0.1,0,0.2,0,0.3,0c1.2-0.2,2-1.3,1.9-2.5l-8.2-54.3c-0.2-1.2-1.3-2-2.5-1.9
			c-1.2,0.2-2,1.3-1.9,2.5l8.2,54.3C296.2,118.3,297.2,119.1,298.3,119.1z"/>
	</g>
	<g>
		<path fill="#5A4221" d="M138.4,303.8c0.1,0,0.2,0,0.3,0c1.2-0.2,2-1.3,1.9-2.5l-8.2-54.3c-0.2-1.2-1.3-2-2.5-1.9
			c-1.2,0.2-2,1.3-1.9,2.5l8.2,54.3C136.4,303,137.3,303.8,138.4,303.8z"/>
	</g>
	<g>
		<path fill="#5A4221" d="M111.8,303.7c0.1,0,0.2,0,0.3,0c1.2-0.2,2-1.3,1.9-2.5l-8.2-54.3c-0.2-1.2-1.3-2-2.5-1.9
			c-1.2,0.2-2,1.3-1.9,2.5l8.2,54.3C109.8,302.9,110.7,303.7,111.8,303.7z"/>
	</g>
	<g>
		<path fill="#809030" d="M233.1,167.1c0,0,31.4-0.6,52.3,13.2l47.2,1.1c0,0-14.1-41.4,13.1-40c27.1,1.4,54.5,59.4-0.3,73.4
			c-54.8,14-184.6-7.9-184.6-7.9s-29.3-26.4-7.8-43.2C174.3,147,233.1,167.1,233.1,167.1z"/>
	</g>
	<g>
		<path fill="#646D2C" d="M233.1,167.1c0,0-21.2,41.9,112.2,47.8c-54.8,14-184.6-7.9-184.6-7.9s-29.3-26.4-7.8-43.2
			C174.3,147,233.1,167.1,233.1,167.1z"/>
	</g>
	<g>
		<path fill="#646D2C" d="M364.1,188.7c0,0-13.2-5.8-29.8-2.4c-16.5,3.5-18,25.7-11.7,25.8C328.9,212.2,363.2,196.3,364.1,188.7z"/>
	</g>
	<g>
		<path fill="#809030" d="M61.2,264.8c-10.7,9.3-12.2,21-2.4,21.1c0,0,39.4,2.9,42.4,0.2c2.9-2.7,13.4-12.1,22.3-21.9L312.6,72.4
			c10.2-11.2,29.5-25.5,19.7-25.6l-36-0.2c-9.8,0-22.8,6-34.4,17.6L61.2,264.8z"/>
	</g>
</g>
</svg>
