<?xml version="1.0" encoding="utf-8"?>
<!-- Generator: Adobe Illustrator 24.1.2, SVG Export Plug-In . SVG Version: 6.00 Build 0)  -->
<svg version="1.1" id="Layer_1" xmlns="http://www.w3.org/2000/svg" xmlns:xlink="http://www.w3.org/1999/xlink" x="0px" y="0px"
	 viewBox="0 0 1266.6 823.7" enable-background="new 0 0 1266.6 823.7" xml:space="preserve">
<rect x="-72.5" y="-121.9" fill="#AAD2E0" width="1376.6" height="880.7"/>
<path fill="#709AA7" d="M296.8,534.7C365,489,421.5,411.8,522.5,504.4c96.7,88.7,102,25.8,196.9-21.7c96.7-48.3,94.2,38.4,125.9,52
	c34.2,14.6,86.9-47.3,109.9-64.1c23-16.9,74.8-1.4,108.6,64.1c33.8,65.5-6.9,254.9-27.7,273.6c-20.8,18.6-644.5,30-644.5,30
	L296.8,534.7z"/>
<path fill="#ADC5D8" d="M292.8,648.2c48.3-29.7,88.3-80.1,159.8-19.7c68.5,57.8,72.2,16.8,139.4-14.1c68.4-31.5,66.7,25,89.1,33.9
	c24.2,9.5,61.5-30.8,77.8-41.8c16.3-11,52.9-0.9,76.9,41.8c23.9,42.7-4.9,127-19.6,139.2c-14.7,12.1-456.2,0-456.2,0L292.8,648.2z"
	/>
<path fill="#8FAFA0" d="M-72.3,526c41.2-53.5,73.4-323.5,334.9-105.9c320.8,267,601.2,512.2,832.1,7.4
	c163.7-357.8,296.6,8.7,351.1,420.2c0,0-12.1,0.9-126.3-2.3c-114.3-3.2-1390.1-8.3-1390.1-8.3L-72.3,526"/>
<rect fill="none" stroke="#000000" stroke-miterlimit="10" width="1266.6" height="823.7"/>
<g>
	<path fill-rule="evenodd" clip-rule="evenodd" fill="#FFFFFF" d="M1153.1,238.9c-6.3-25.2,43.1-29,41-0.8c0,0-0.1,2.2,1.3,1.2
		c11.7-13.6,24.5,0.7,19,9.6c8.6,2.2,12.2,6.8,12.3,11.4h-114.9l0,0c-1.1-9.9,7.3-21.6,24.8-16.3
		C1133.1,233.7,1149.9,230.5,1153.1,238.9c-0.1,0.2-0.1,0.4-0.1,0.6c0,0.8,0.6,1.4,1.4,1.4"/>
	<path fill-rule="evenodd" clip-rule="evenodd" fill="#FFFFFF" d="M99.6,231.6c-6.3-25.2,43.1-29,41-0.8c0,0-0.1,2.2,1.3,1.2
		c11.7-13.6,24.5,0.7,19,9.6c8.6,2.2,12.2,6.8,12.3,11.4H58.3l0,0c-1.1-9.9,7.3-21.6,24.8-16.3C79.6,226.4,96.4,223.3,99.6,231.6
		c-0.1,0.2-0.1,0.4-0.1,0.6c0,0.8,0.6,1.4,1.4,1.4"/>
	<path fill-rule="evenodd" clip-rule="evenodd" fill="#FFFFFF" d="M698.4,266.5c-6.7-27.1,46.4-31.1,44-0.9c0,0-0.1,2.4,1.4,1.3
		c12.6-14.7,26.3,0.7,20.4,10.3c9.2,2.4,13.1,7.3,13.3,12.2H654l0,0c-1.1-10.6,7.8-23.2,26.6-17.5
		C676.9,261,694.9,257.5,698.4,266.5c-0.1,0.2-0.2,0.4-0.2,0.7c0,0.8,0.7,1.5,1.5,1.5"/>
	<path fill-rule="evenodd" clip-rule="evenodd" fill="#FFFFFF" d="M832.5,324c-5.6-22.7,38.9-26.1,36.9-0.7c0,0-0.1,2,1.2,1.1
		c10.6-12.3,22,0.6,17.1,8.6c7.7,2,11,6.1,11.1,10.2H795.3l0,0c-1-8.9,6.6-19.5,22.3-14.7C814.5,319.4,829.6,316.5,832.5,324
		c-0.1,0.2-0.1,0.4-0.1,0.6c0,0.7,0.6,1.3,1.3,1.3"/>
	<path fill-rule="evenodd" clip-rule="evenodd" fill="#FFFFFF" d="M838.8,197c-2.5-10.2,17.4-11.7,16.5-0.3c0,0,0,0.9,0.5,0.5
		c4.7-5.5,9.9,0.3,7.7,3.9c3.5,0.9,4.9,2.8,5,4.6h-46.4l0,0c-0.4-4,2.9-8.7,10-6.6C830.8,194.9,837.5,193.6,838.8,197
		c0,0.1-0.1,0.2-0.1,0.3c0,0.3,0.3,0.6,0.6,0.6"/>
</g>
</svg>
