<?xml version="1.0" encoding="utf-8"?>
<!-- Generator: Adobe Illustrator 24.1.2, SVG Export Plug-In . SVG Version: 6.00 Build 0)  -->
<svg version="1.1" id="Layer_1" xmlns="http://www.w3.org/2000/svg" xmlns:xlink="http://www.w3.org/1999/xlink" x="0px" y="0px"
	 viewBox="0 0 606 372.3" enable-background="new 0 0 606 372.3" xml:space="preserve">
<path opacity="0.8" fill="#9EBED4" d="M44.2,238.8c43.8-15.4,80-41.4,144.8-10.2c62,29.9,65.4,8.7,126.3-7.3
	c62-16.3,60.5,13,80.7,17.5c21.9,4.9,55.7-15.9,70.5-21.6c14.7-5.7,48-0.5,69.7,21.6c21.7,22.1-4.4,65.7-17.8,72
	c-13.3,6.3-413.4,0-413.4,0L44.2,238.8z"/>
<path fill="#9AB2C0" d="M-172.1,264c24.2-22.4,61.4-135.7,215.2-44.4c188.8,112,303.9,123,460.4-9.5
	c149.1-126.2,213.3-56.5,279.2,91c0,0-50.2,0.4-117.5-1c-67.3-1.4-836.3-3.5-836.3-3.5L-172.1,264"/>
<path fill="#C3DEC9" d="M758.7,436.6c-0.3-50.5-1.3-101.1-3.6-151.6c-26.7,1.7-51.7,3.2-69,4.1c-59.4,3.2-190.9-9.9-235.1-9.3
	c-44.3,0.6-143,6.7-207.4,9.7c-64.4,3-232.7-13.9-279.9-13.9c-38.4,0-113.6,6.4-153.8,9.5v188.8c126.7,4.3,494.5,16.7,510.1,16.7
	c18.8,0,349.8-6.4,398.4-10.9c9.8-0.9,24-2.7,40.4-4.9C758.8,462,758.7,449.3,758.7,436.6z"/>
<path fill="#91B9DF" d="M703.2,338h-876.1c0,0,362.5,65.2,541.6,72.3c179.1,7.1,235.2-18.4,235.2-18.4L703.2,338z"/>
<path fill="#BCD8BF" d="M734.3,624.6c1-38.8,1.6-8.8,2-47.7c0.6-73.4,0.3-146.9,0.1-220.4c-51.1,31.4-196.6,106.3-467.8,3.9
	C-44.7,242-118.8,329-163.7,345.9l-1.1,278.6H734.3z"/>
<g>
	<g>
		<polygon fill="#B1D1A9" points="126.1,396.8 86.8,396.8 106.5,362.7 126.1,328.6 145.8,362.7 165.5,396.8 		"/>
		<polyline fill="#A6CCA9" points="126.2,328.6 145.8,362.7 165.5,396.8 126.2,396.8 		"/>
		<polyline fill="#B1D1A9" points="126.2,328.6 144.4,354.2 162,379.7 126.2,379.7 		"/>
		<polyline fill="#A6CCA9" points="126.2,359 152.3,359 126.2,328.6 		"/>
		<polyline fill="#A6CCA9" points="126,328.6 107.7,354.2 90.2,379.7 126,379.7 		"/>
		<polyline fill="#B1D1A9" points="126,359 99.2,359 126,328.6 		"/>
	</g>
	<g>
		<polygon fill="#B1D1A9" points="42.3,375.5 3,375.5 22.6,341.4 42.3,307.4 62,341.4 81.6,375.5 		"/>
		<polyline fill="#A6CCA9" points="42.3,307.4 62,341.4 81.6,375.5 42.3,375.5 		"/>
		<polyline fill="#B1D1A9" points="42.3,307.4 60.6,332.9 78.2,358.4 42.3,358.4 		"/>
		<polyline fill="#A6CCA9" points="42.3,337.7 68.5,337.7 42.3,307.4 		"/>
		<polyline fill="#A6CCA9" points="42.2,307.4 23.9,332.9 6.3,358.4 42.2,358.4 		"/>
		<polyline fill="#B1D1A9" points="42.2,337.7 15.3,337.7 42.2,307.4 		"/>
	</g>
	<g>
		<polygon fill="#B1D1A9" points="-26.5,429.5 -65.8,429.5 -46.2,395.4 -26.5,361.3 -6.8,395.4 12.8,429.5 		"/>
		<polyline fill="#A6CCA9" points="-26.5,361.3 -6.8,395.4 12.8,429.5 -26.5,429.5 		"/>
		<polyline fill="#B1D1A9" points="-26.5,361.3 -8.2,386.9 9.4,412.4 -26.5,412.4 		"/>
		<polyline fill="#A6CCA9" points="-26.5,391.7 -0.3,391.7 -26.5,361.3 		"/>
		<polyline fill="#A6CCA9" points="-26.6,361.3 -44.9,386.9 -62.5,412.4 -26.6,412.4 		"/>
		<polyline fill="#B1D1A9" points="-26.6,391.7 -53.5,391.7 -26.6,361.3 		"/>
	</g>
	<g>
		<polygon fill="#B1D1A9" points="-73.8,354.7 -113.2,354.7 -93.5,320.6 -73.8,286.5 -54.2,320.6 -34.5,354.7 		"/>
		<polyline fill="#A6CCA9" points="-73.8,286.5 -54.2,320.6 -34.5,354.7 -73.8,354.7 		"/>
		<polyline fill="#B1D1A9" points="-73.8,286.5 -55.6,312.1 -38,337.6 -73.8,337.6 		"/>
		<polyline fill="#A6CCA9" points="-73.8,316.9 -47.7,316.9 -73.8,286.5 		"/>
		<polyline fill="#A6CCA9" points="-74,286.5 -92.3,312.1 -109.9,337.6 -74,337.6 		"/>
		<polyline fill="#B1D1A9" points="-74,316.9 -100.9,316.9 -74,286.5 		"/>
	</g>
	<path fill="#97C59C" d="M126.3,314.9"/>
	<g>
		<polygon fill="#B1D1A9" points="214.3,379.8 174.9,379.8 194.6,345.8 214.3,311.7 233.9,345.8 253.6,379.8 		"/>
		<polyline fill="#A6CCA9" points="214.3,311.7 233.9,345.8 253.6,379.8 214.3,379.8 		"/>
		<polyline fill="#B1D1A9" points="214.3,311.7 232.6,337.3 250.2,362.8 214.3,362.8 		"/>
		<polyline fill="#A6CCA9" points="214.3,342 240.5,342 214.3,311.7 		"/>
		<polyline fill="#A6CCA9" points="214.2,311.7 195.9,337.3 178.3,362.8 214.2,362.8 		"/>
		<polyline fill="#B1D1A9" points="214.2,342 187.3,342 214.2,311.7 		"/>
	</g>
	<g>
		<polygon fill="#B1D1A9" points="256.9,531.6 207.7,531.6 232.3,488.9 256.9,446.3 281.5,488.9 306.1,531.6 		"/>
		<polyline fill="#A6CCA9" points="257,446.3 281.6,488.9 306.2,531.6 257,531.6 		"/>
		<polyline fill="#B1D1A9" points="257,446.3 279.9,478.3 301.9,510.2 257,510.2 		"/>
		<polyline fill="#A6CCA9" points="257,484.3 289.8,484.3 257,446.3 		"/>
		<polyline fill="#A6CCA9" points="256.9,446.3 234,478.3 212,510.2 256.9,510.2 		"/>
		<polyline fill="#B1D1A9" points="256.9,484.3 223.2,484.3 256.9,446.3 		"/>
	</g>
	<g>
		<polygon fill="#B1D1A9" points="4.4,315.4 -17.9,315.4 -6.7,296 4.4,276.7 15.6,296 26.8,315.4 		"/>
		<polyline fill="#A6CCA9" points="4.4,276.7 15.6,296 26.8,315.4 4.4,315.4 		"/>
		<polyline fill="#B1D1A9" points="4.5,276.7 14.9,291.2 24.9,305.7 4.5,305.7 		"/>
		<polyline fill="#A6CCA9" points="4.5,293.9 19.3,293.9 4.5,276.7 		"/>
		<polyline fill="#A6CCA9" points="4.4,276.7 -6,291.2 -16,305.7 4.4,305.7 		"/>
		<polyline fill="#B1D1A9" points="4.4,293.9 -10.9,293.9 4.4,276.7 		"/>
	</g>
	<g>
		<polygon fill="#B1D1A9" points="80.4,316.5 58,316.5 69.2,297.1 80.4,277.8 91.5,297.1 102.7,316.5 		"/>
		<polyline fill="#A6CCA9" points="80.4,277.8 91.5,297.1 102.7,316.5 80.4,316.5 		"/>
		<polyline fill="#B1D1A9" points="80.4,277.8 90.8,292.3 100.8,306.8 80.4,306.8 		"/>
		<polyline fill="#A6CCA9" points="80.4,295 95.3,295 80.4,277.8 		"/>
		<polyline fill="#A6CCA9" points="80.3,277.8 69.9,292.3 59.9,306.8 80.3,306.8 		"/>
		<polyline fill="#B1D1A9" points="80.3,295 65.1,295 80.3,277.8 		"/>
	</g>
	<g>
		<polygon fill="#B1D1A9" points="165.6,320.5 143.3,320.5 154.4,301.2 165.6,281.8 176.8,301.2 187.9,320.5 		"/>
		<polyline fill="#A6CCA9" points="165.6,281.8 176.8,301.2 187.9,320.5 165.6,320.5 		"/>
		<polyline fill="#B1D1A9" points="165.6,281.8 176,296.3 186,310.8 165.6,310.8 		"/>
		<polyline fill="#A6CCA9" points="165.6,299 180.5,299 165.6,281.8 		"/>
		<polyline fill="#A6CCA9" points="165.6,281.8 155.2,296.3 145.2,310.8 165.6,310.8 		"/>
		<polyline fill="#B1D1A9" points="165.6,299 150.3,299 165.6,281.8 		"/>
	</g>
</g>
<g opacity="0.9">
	<g>
		<polygon fill="#B1D1A9" points="46.1,288.4 29.5,288.4 37.8,274 46.1,259.6 54.4,274 62.7,288.4 		"/>
		<polyline fill="#A6CCA9" points="46.1,259.6 54.4,274 62.7,288.4 46.1,288.4 		"/>
		<polyline fill="#B1D1A9" points="46.1,259.6 53.9,270.4 61.3,281.2 46.1,281.2 		"/>
		<polyline fill="#A6CCA9" points="46.1,272.4 57.2,272.4 46.1,259.6 		"/>
		<polyline fill="#A6CCA9" points="46.1,259.6 38.4,270.4 30.9,281.2 46.1,281.2 		"/>
		<polyline fill="#B1D1A9" points="46.1,272.4 34.7,272.4 46.1,259.6 		"/>
	</g>
	<g>
		<polygon fill="#B1D1A9" points="-10,292.8 -26.6,292.8 -18.3,278.4 -10,264 -1.7,278.4 6.6,292.8 		"/>
		<polyline fill="#A6CCA9" points="-10,264 -1.7,278.4 6.6,292.8 -10,292.8 		"/>
		<polyline fill="#B1D1A9" points="-10,264 -2.2,274.8 5.2,285.6 -10,285.6 		"/>
		<polyline fill="#A6CCA9" points="-10,276.8 1.1,276.8 -10,264 		"/>
		<polyline fill="#A6CCA9" points="-10,264 -17.7,274.8 -25.2,285.6 -10,285.6 		"/>
		<polyline fill="#B1D1A9" points="-10,276.8 -21.4,276.8 -10,264 		"/>
	</g>
	<g>
		<polygon fill="#B1D1A9" points="-53.5,289.7 -68.3,289.7 -60.9,276.9 -53.5,264 -46.1,276.9 -38.6,289.7 		"/>
		<polyline fill="#A6CCA9" points="-53.5,264 -46.1,276.9 -38.6,289.7 -53.5,289.7 		"/>
		<polyline fill="#B1D1A9" points="-53.5,264 -46.6,273.7 -40,283.3 -53.5,283.3 		"/>
		<polyline fill="#A6CCA9" points="-53.5,275.5 -43.6,275.5 -53.5,264 		"/>
		<polyline fill="#A6CCA9" points="-53.5,264 -60.4,273.7 -67.1,283.3 -53.5,283.3 		"/>
		<polyline fill="#B1D1A9" points="-53.5,275.5 -63.7,275.5 -53.5,264 		"/>
	</g>
	<g>
		<polygon fill="#B1D1A9" points="-103.4,293.9 -120,293.9 -111.7,279.5 -103.4,265.1 -95.1,279.5 -86.8,293.9 		"/>
		<polyline fill="#A6CCA9" points="-103.4,265.1 -95.1,279.5 -86.8,293.9 -103.4,293.9 		"/>
		<polyline fill="#B1D1A9" points="-103.4,265.1 -95.7,275.9 -88.3,286.7 -103.4,286.7 		"/>
		<polyline fill="#A6CCA9" points="-103.4,277.9 -92.4,277.9 -103.4,265.1 		"/>
		<polyline fill="#A6CCA9" points="-103.5,265.1 -111.2,275.9 -118.6,286.7 -103.5,286.7 		"/>
		<polyline fill="#B1D1A9" points="-103.5,277.9 -114.8,277.9 -103.5,265.1 		"/>
	</g>
	<g>
		<polygon fill="#B1D1A9" points="95.4,287.3 78.8,287.3 87.1,272.9 95.4,258.5 103.7,272.9 112,287.3 		"/>
		<polyline fill="#A6CCA9" points="95.4,258.5 103.7,272.9 112,287.3 95.4,287.3 		"/>
		<polyline fill="#B1D1A9" points="95.5,258.5 103.2,269.3 110.6,280.1 95.5,280.1 		"/>
		<polyline fill="#A6CCA9" points="95.5,271.3 106.5,271.3 95.5,258.5 		"/>
		<polyline fill="#A6CCA9" points="95.4,258.5 87.7,269.3 80.3,280.1 95.4,280.1 		"/>
		<polyline fill="#B1D1A9" points="95.4,271.3 84.1,271.3 95.4,258.5 		"/>
	</g>
	<g>
		<polygon fill="#B1D1A9" points="145.5,302.4 126.5,302.4 136,286 145.5,269.6 154.9,286 164.4,302.4 		"/>
		<polyline fill="#A6CCA9" points="145.5,269.6 154.9,286 164.4,302.4 145.5,302.4 		"/>
		<polyline fill="#B1D1A9" points="145.5,269.6 154.3,281.9 162.7,294.2 145.5,294.2 		"/>
		<polyline fill="#A6CCA9" points="145.5,284.2 158.1,284.2 145.5,269.6 		"/>
		<polyline fill="#A6CCA9" points="145.4,269.6 136.6,281.9 128.1,294.2 145.4,294.2 		"/>
		<polyline fill="#B1D1A9" points="145.4,284.2 132.5,284.2 145.4,269.6 		"/>
	</g>
	<g>
		<polygon fill="#B1D1A9" points="201.6,301.2 182.7,301.2 192.2,284.8 201.6,268.4 211.1,284.8 220.6,301.2 		"/>
		<polyline fill="#A6CCA9" points="201.6,268.4 211.1,284.8 220.6,301.2 201.6,301.2 		"/>
		<polyline fill="#B1D1A9" points="201.7,268.4 210.5,280.7 218.9,293 201.7,293 		"/>
		<polyline fill="#A6CCA9" points="201.7,283 214.3,283 201.7,268.4 		"/>
		<polyline fill="#A6CCA9" points="201.6,268.4 192.8,280.7 184.3,293 201.6,293 		"/>
		<polyline fill="#B1D1A9" points="201.6,283 188.7,283 201.6,268.4 		"/>
	</g>
	<g>
		<polygon fill="#B1D1A9" points="385.7,330 366.8,330 376.2,313.6 385.7,297.2 395.2,313.6 404.6,330 		"/>
		<polyline fill="#A6CCA9" points="385.7,297.2 395.2,313.6 404.6,330 385.7,330 		"/>
		<polyline fill="#B1D1A9" points="385.7,297.2 394.5,309.5 403,321.8 385.7,321.8 		"/>
		<polyline fill="#A6CCA9" points="385.7,311.8 398.3,311.8 385.7,297.2 		"/>
		<polyline fill="#A6CCA9" points="385.6,297.2 376.8,309.5 368.4,321.8 385.6,321.8 		"/>
		<polyline fill="#B1D1A9" points="385.6,311.8 372.7,311.8 385.6,297.2 		"/>
	</g>
	<g>
		<polygon fill="#B1D1A9" points="302.7,332.2 283.7,332.2 293.2,315.9 302.7,299.5 312.1,315.9 321.6,332.2 		"/>
		<polyline fill="#A6CCA9" points="302.7,299.5 312.1,315.9 321.6,332.2 302.7,332.2 		"/>
		<polyline fill="#B1D1A9" points="302.7,299.5 311.5,311.8 319.9,324.1 302.7,324.1 		"/>
		<polyline fill="#A6CCA9" points="302.7,314.1 315.3,314.1 302.7,299.5 		"/>
		<polyline fill="#A6CCA9" points="302.6,299.5 293.8,311.8 285.3,324.1 302.6,324.1 		"/>
		<polyline fill="#B1D1A9" points="302.6,314.1 289.7,314.1 302.6,299.5 		"/>
	</g>
	<g>
		<polygon fill="#B1D1A9" points="269.6,309.2 250.6,309.2 260.1,292.8 269.6,276.4 279,292.8 288.5,309.2 		"/>
		<polyline fill="#A6CCA9" points="269.6,276.4 279,292.8 288.5,309.2 269.6,309.2 		"/>
		<polyline fill="#B1D1A9" points="269.6,276.4 278.4,288.7 286.8,301 269.6,301 		"/>
		<polyline fill="#A6CCA9" points="269.6,291 282.2,291 269.6,276.4 		"/>
		<polyline fill="#A6CCA9" points="269.5,276.4 260.7,288.7 252.2,301 269.5,301 		"/>
		<polyline fill="#B1D1A9" points="269.5,291 256.6,291 269.5,276.4 		"/>
	</g>
	<g>
		<polygon fill="#B1D1A9" points="332.8,306.1 313.8,306.1 323.3,289.7 332.8,273.4 342.2,289.7 351.7,306.1 		"/>
		<polyline fill="#A6CCA9" points="332.8,273.4 342.2,289.7 351.7,306.1 332.8,306.1 		"/>
		<polyline fill="#B1D1A9" points="332.8,273.4 341.6,285.6 350,297.9 332.8,297.9 		"/>
		<polyline fill="#A6CCA9" points="332.8,287.9 345.4,287.9 332.8,273.4 		"/>
		<polyline fill="#A6CCA9" points="332.7,273.4 323.9,285.6 315.4,297.9 332.7,297.9 		"/>
		<polyline fill="#B1D1A9" points="332.7,287.9 319.8,287.9 332.7,273.4 		"/>
	</g>
	<g>
		<polygon fill="#B1D1A9" points="412.1,291.4 395,291.4 403.5,276.6 412.1,261.9 420.6,276.6 429.1,291.4 		"/>
		<polyline fill="#A6CCA9" points="412.1,261.9 420.6,276.6 429.1,291.4 412.1,291.4 		"/>
		<polyline fill="#B1D1A9" points="412.1,261.9 420,273 427.6,284 412.1,284 		"/>
		<polyline fill="#A6CCA9" points="412.1,275 423.4,275 412.1,261.9 		"/>
		<polyline fill="#A6CCA9" points="412,261.9 404.1,273 396.5,284 412,284 		"/>
		<polyline fill="#B1D1A9" points="412,275 400.4,275 412,261.9 		"/>
	</g>
	<g>
		<polygon fill="#B1D1A9" points="462.9,292.4 445.9,292.4 454.4,277.6 462.9,262.9 471.5,277.6 480,292.4 		"/>
		<polyline fill="#A6CCA9" points="462.9,262.9 471.5,277.6 480,292.4 462.9,292.4 		"/>
		<polyline fill="#B1D1A9" points="462.9,262.9 470.9,273.9 478.5,285 462.9,285 		"/>
		<polyline fill="#A6CCA9" points="462.9,276 474.3,276 462.9,262.9 		"/>
		<polyline fill="#A6CCA9" points="462.9,262.9 455,273.9 447.3,285 462.9,285 		"/>
		<polyline fill="#B1D1A9" points="462.9,276 451.2,276 462.9,262.9 		"/>
	</g>
	<g>
		<polygon fill="#B1D1A9" points="515.2,290.1 498.2,290.1 506.7,275.3 515.2,260.6 523.8,275.3 532.3,290.1 		"/>
		<polyline fill="#A6CCA9" points="515.2,260.6 523.8,275.3 532.3,290.1 515.2,290.1 		"/>
		<polyline fill="#B1D1A9" points="515.2,260.6 523.2,271.6 530.8,282.7 515.2,282.7 		"/>
		<polyline fill="#A6CCA9" points="515.2,273.7 526.6,273.7 515.2,260.6 		"/>
		<polyline fill="#A6CCA9" points="515.2,260.6 507.3,271.6 499.6,282.7 515.2,282.7 		"/>
		<polyline fill="#B1D1A9" points="515.2,273.7 503.5,273.7 515.2,260.6 		"/>
	</g>
	<g>
		<polygon fill="#B1D1A9" points="577,291.4 559.9,291.4 568.4,276.6 577,261.9 585.5,276.6 594,291.4 		"/>
		<polyline fill="#A6CCA9" points="577,261.9 585.5,276.6 594,291.4 577,291.4 		"/>
		<polyline fill="#B1D1A9" points="577,261.9 584.9,273 592.5,284 577,284 		"/>
		<polyline fill="#A6CCA9" points="577,275 588.3,275 577,261.9 		"/>
		<polyline fill="#A6CCA9" points="576.9,261.9 569,273 561.4,284 576.9,284 		"/>
		<polyline fill="#B1D1A9" points="576.9,275 565.3,275 576.9,261.9 		"/>
	</g>
	<g>
		<polygon fill="#B1D1A9" points="438.5,328.7 419.5,328.7 429,312.3 438.5,295.9 447.9,312.3 457.4,328.7 		"/>
		<polyline fill="#A6CCA9" points="438.5,295.9 447.9,312.3 457.4,328.7 438.5,328.7 		"/>
		<polyline fill="#B1D1A9" points="438.5,295.9 447.3,308.2 455.8,320.5 438.5,320.5 		"/>
		<polyline fill="#A6CCA9" points="438.5,310.5 451.1,310.5 438.5,295.9 		"/>
		<polyline fill="#A6CCA9" points="438.4,295.9 429.6,308.2 421.2,320.5 438.4,320.5 		"/>
		<polyline fill="#B1D1A9" points="438.4,310.5 425.5,310.5 438.4,295.9 		"/>
	</g>
	<g>
		<polygon fill="#B1D1A9" points="486.6,325.6 467.6,325.6 477.1,309.2 486.6,292.8 496,309.2 505.5,325.6 		"/>
		<polyline fill="#A6CCA9" points="486.6,292.8 496,309.2 505.5,325.6 486.6,325.6 		"/>
		<polyline fill="#B1D1A9" points="486.6,292.8 495.4,305.1 503.8,317.4 486.6,317.4 		"/>
		<polyline fill="#A6CCA9" points="486.6,307.4 499.2,307.4 486.6,292.8 		"/>
		<polyline fill="#A6CCA9" points="486.5,292.8 477.7,305.1 469.3,317.4 486.5,317.4 		"/>
		<polyline fill="#B1D1A9" points="486.5,307.4 473.6,307.4 486.5,292.8 		"/>
	</g>
	<g>
		<polygon fill="#B1D1A9" points="536,331.3 517.1,331.3 526.5,314.9 536,298.5 545.5,314.9 554.9,331.3 		"/>
		<polyline fill="#A6CCA9" points="536,298.5 545.5,314.9 554.9,331.3 536,331.3 		"/>
		<polyline fill="#B1D1A9" points="536,298.5 544.8,310.8 553.3,323.1 536,323.1 		"/>
		<polyline fill="#A6CCA9" points="536,313.1 548.6,313.1 536,298.5 		"/>
		<polyline fill="#A6CCA9" points="536,298.5 527.2,310.8 518.7,323.1 536,323.1 		"/>
		<polyline fill="#B1D1A9" points="536,313.1 523,313.1 536,298.5 		"/>
	</g>
	<g>
		<polygon fill="#B1D1A9" points="585.3,331.3 566.4,331.3 575.8,314.9 585.3,298.5 594.7,314.9 604.2,331.3 		"/>
		<polyline fill="#A6CCA9" points="585.3,298.5 594.7,314.9 604.2,331.3 585.3,331.3 		"/>
		<polyline fill="#B1D1A9" points="585.3,298.5 594.1,310.8 602.6,323.1 585.3,323.1 		"/>
		<polyline fill="#A6CCA9" points="585.3,313.1 597.9,313.1 585.3,298.5 		"/>
		<polyline fill="#A6CCA9" points="585.2,298.5 576.4,310.8 568,323.1 585.2,323.1 		"/>
		<polyline fill="#B1D1A9" points="585.2,313.1 572.3,313.1 585.2,298.5 		"/>
	</g>
	<g>
		<polygon fill="#B1D1A9" points="684.8,332.5 661.4,332.5 673.1,312.2 684.8,292 696.5,312.2 708.2,332.5 		"/>
		<polyline fill="#A6CCA9" points="684.8,292 696.5,312.2 708.2,332.5 684.8,332.5 		"/>
		<polyline fill="#B1D1A9" points="684.8,292 695.7,307.2 706.2,322.4 684.8,322.4 		"/>
		<polyline fill="#A6CCA9" points="684.8,310 700.4,310 684.8,292 		"/>
		<polyline fill="#A6CCA9" points="684.7,292 673.9,307.2 663.4,322.4 684.7,322.4 		"/>
		<polyline fill="#B1D1A9" points="684.7,310 668.7,310 684.7,292 		"/>
	</g>
</g>
<g opacity="0.6">
	<polygon fill="#B1D1A9" points="747.1,313.1 730.5,313.1 738.8,298.7 747.1,284.3 755.4,298.7 763.7,313.1 	"/>
	<polygon fill="#B1D1A9" points="702,312 685.4,312 693.7,297.6 702,283.2 710.3,297.6 718.6,312 	"/>
	<polygon fill="#B1D1A9" points="645,313.1 628.4,313.1 636.7,298.7 645,284.3 653.3,298.7 661.6,313.1 	"/>
	<polyline fill="#A6CCA9" points="645,284.3 653.3,298.7 661.6,313.1 645,313.1 	"/>
	<polyline fill="#A6CCA9" points="702,283.2 710.3,297.6 718.6,312 702,312 	"/>
	<polyline fill="#B1D1A9" points="702,283.2 709.7,294 717.1,304.8 702,304.8 	"/>
	<polyline fill="#A6CCA9" points="702,296 713,296 702,283.2 	"/>
	<polyline fill="#A6CCA9" points="701.9,283.2 694.2,294 686.8,304.8 701.9,304.8 	"/>
	<polyline fill="#B1D1A9" points="701.9,296 690.6,296 701.9,283.2 	"/>
	<polyline fill="#B1D1A9" points="645,284.3 652.7,295.1 660.2,305.9 645,305.9 	"/>
	<polyline fill="#A6CCA9" points="645,297.1 656.1,297.1 645,284.3 	"/>
	<polyline fill="#A6CCA9" points="645,284.3 637.3,295.1 629.8,305.9 645,305.9 	"/>
	<polyline fill="#B1D1A9" points="645,297.1 633.6,297.1 645,284.3 	"/>
	<path fill="#97C59C" d="M702,283.2"/>
	<polyline fill="#A6CCA9" points="747.1,284.3 755.4,298.7 763.7,313.1 747.1,313.1 	"/>
	<polyline fill="#B1D1A9" points="747.1,284.3 754.9,295.1 762.3,305.9 747.1,305.9 	"/>
	<polyline fill="#A6CCA9" points="747.1,297.1 758.2,297.1 747.1,284.3 	"/>
	<polyline fill="#A6CCA9" points="747.1,284.3 739.4,295.1 731.9,305.9 747.1,305.9 	"/>
	<polyline fill="#B1D1A9" points="747.1,297.1 735.7,297.1 747.1,284.3 	"/>
</g>
<g>
	<polygon fill="#B1D1A9" points="654.8,482.1 592.1,482.1 623.5,427.8 654.8,373.5 686.1,427.8 717.5,482.1 	"/>
	<polygon fill="#B1D1A9" points="526.4,482.1 463.8,482.1 495.1,427.8 526.4,373.5 557.8,427.8 589.1,482.1 	"/>
	<polygon fill="#B1D1A9" points="398,482.1 335.4,482.1 366.7,427.8 398,373.5 429.4,427.8 460.7,482.1 	"/>
	<polyline fill="#A6CCA9" points="398,373.5 429.4,427.8 460.7,482.1 398,482.1 	"/>
	<polyline fill="#A6CCA9" points="526.4,373.5 557.8,427.8 589.1,482.1 526.4,482.1 	"/>
	<polyline fill="#A6CCA9" points="654.8,373.5 686.1,427.8 717.5,482.1 654.8,482.1 	"/>
	<polyline fill="#B1D1A9" points="398,373.5 427.1,414.2 455.2,454.9 398,454.9 	"/>
	<polyline fill="#A6CCA9" points="398,421.8 439.7,421.8 398,373.5 	"/>
	<polyline fill="#A6CCA9" points="397.8,373.5 368.7,414.2 340.7,454.9 397.8,454.9 	"/>
	<polyline fill="#B1D1A9" points="397.8,421.8 355,421.8 397.8,373.5 	"/>
	<polyline fill="#B1D1A9" points="526.4,373.5 555.5,414.2 583.6,454.9 526.4,454.9 	"/>
	<polyline fill="#A6CCA9" points="526.4,421.8 568.1,421.8 526.4,373.5 	"/>
	<polyline fill="#A6CCA9" points="526.2,373.5 497.1,414.2 469,454.9 526.2,454.9 	"/>
	<polyline fill="#B1D1A9" points="526.2,421.8 483.4,421.8 526.2,373.5 	"/>
	<polyline fill="#B1D1A9" points="654.8,373.5 683.9,414.2 711.9,454.9 654.8,454.9 	"/>
	<polyline fill="#A6CCA9" points="654.8,421.8 696.5,421.8 654.8,373.5 	"/>
	<polyline fill="#A6CCA9" points="654.6,373.5 625.5,414.2 597.4,454.9 654.6,454.9 	"/>
	<polyline fill="#B1D1A9" points="654.6,421.8 611.8,421.8 654.6,373.5 	"/>
</g>
<g>
	<polygon fill="#B1D1A9" points="337.5,643.2 259.8,643.2 298.7,575.9 337.5,508.6 376.3,575.9 415.2,643.2 	"/>
	<polygon fill="#B1D1A9" points="178.3,643.2 100.6,643.2 139.5,575.9 178.3,508.6 217.2,575.9 256,643.2 	"/>
	<polygon fill="#B1D1A9" points="19.1,643.2 -58.6,643.2 -19.7,575.9 19.1,508.6 58,575.9 96.8,643.2 	"/>
	<polyline fill="#A6CCA9" points="19.1,508.6 58,575.9 96.8,643.2 19.1,643.2 	"/>
	<polyline fill="#A6CCA9" points="178.3,508.6 217.2,575.9 256,643.2 178.3,643.2 	"/>
	<polyline fill="#A6CCA9" points="337.5,508.6 376.3,575.9 415.2,643.2 337.5,643.2 	"/>
	<polyline fill="#B1D1A9" points="19.1,508.6 55.2,559.1 90,609.6 19.1,609.6 	"/>
	<polyline fill="#A6CCA9" points="19.1,568.5 70.8,568.5 19.1,508.6 	"/>
	<polyline fill="#A6CCA9" points="18.9,508.6 -17.3,559.1 -52,609.6 18.9,609.6 	"/>
	<polyline fill="#B1D1A9" points="18.9,568.5 -34.2,568.5 18.9,508.6 	"/>
	<polyline fill="#B1D1A9" points="178.3,508.6 214.4,559.1 249.2,609.6 178.3,609.6 	"/>
	<polyline fill="#A6CCA9" points="178.3,568.5 230,568.5 178.3,508.6 	"/>
	<polyline fill="#A6CCA9" points="178,508.6 141.9,559.1 107.2,609.6 178,609.6 	"/>
	<polyline fill="#B1D1A9" points="178,568.5 125,568.5 178,508.6 	"/>
	<polyline fill="#B1D1A9" points="337.5,508.6 373.6,559.1 408.3,609.6 337.5,609.6 	"/>
	<polyline fill="#A6CCA9" points="337.5,568.5 389.2,568.5 337.5,508.6 	"/>
	<polyline fill="#A6CCA9" points="337.2,508.6 301.1,559.1 266.4,609.6 337.2,609.6 	"/>
	<polyline fill="#B1D1A9" points="337.2,568.5 284.1,568.5 337.2,508.6 	"/>
</g>
<g>
	<polygon fill="#B1D1A9" points="737.4,661.5 639.5,661.5 688.4,576.6 737.4,491.8 786.4,576.6 835.4,661.5 	"/>
	<polygon fill="#B1D1A9" points="536.7,661.5 438.8,661.5 487.7,576.6 536.7,491.8 585.7,576.6 634.7,661.5 	"/>
	<polyline fill="#A6CCA9" points="536.7,491.8 585.7,576.6 634.7,661.5 536.7,661.5 	"/>
	<polyline fill="#A6CCA9" points="737.4,491.8 786.4,576.6 835.4,661.5 737.4,661.5 	"/>
	<polyline fill="#B1D1A9" points="536.7,491.8 582.2,555.4 626,619.1 536.7,619.1 	"/>
	<polyline fill="#A6CCA9" points="536.7,567.3 601.9,567.3 536.7,491.8 	"/>
	<polyline fill="#A6CCA9" points="536.4,491.8 490.9,555.4 447,619.1 536.4,619.1 	"/>
	<polyline fill="#B1D1A9" points="536.4,567.3 469.5,567.3 536.4,491.8 	"/>
	<polyline fill="#B1D1A9" points="737.4,491.8 782.9,555.4 826.7,619.1 737.4,619.1 	"/>
	<polyline fill="#A6CCA9" points="737.4,567.3 802.6,567.3 737.4,491.8 	"/>
	<polyline fill="#A6CCA9" points="737.1,491.8 691.5,555.4 647.7,619.1 737.1,619.1 	"/>
	<polyline fill="#B1D1A9" points="737.1,567.3 670.1,567.3 737.1,491.8 	"/>
</g>
<g>
	<polygon fill="#B1D1A9" points="-23.4,500.7 -62.6,500.7 -43,466.7 -23.4,432.8 -3.8,466.7 15.8,500.7 	"/>
	<polygon fill="#B1D1A9" points="-103.7,466.6 -142.9,466.6 -123.3,432.7 -103.7,398.7 -84.1,432.7 -64.5,466.6 	"/>
	<polyline fill="#A6CCA9" points="-103.7,398.7 -84.1,432.7 -64.5,466.6 -103.7,466.6 	"/>
	<polyline fill="#A6CCA9" points="-23.4,432.8 -3.8,466.7 15.8,500.7 -23.4,500.7 	"/>
	<polyline fill="#B1D1A9" points="-103.7,398.7 -85.5,424.2 -67.9,449.6 -103.7,449.6 	"/>
	<polyline fill="#A6CCA9" points="-103.7,428.9 -77.6,428.9 -103.7,398.7 	"/>
	<polyline fill="#A6CCA9" points="-103.8,398.7 -122,424.2 -139.6,449.6 -103.8,449.6 	"/>
	<polyline fill="#B1D1A9" points="-103.8,428.9 -130.6,428.9 -103.8,398.7 	"/>
	<polyline fill="#B1D1A9" points="-23.4,432.8 -5.2,458.2 12.4,483.7 -23.4,483.7 	"/>
	<polyline fill="#A6CCA9" points="-23.4,463 2.7,463 -23.4,432.8 	"/>
	<polyline fill="#A6CCA9" points="-23.5,432.8 -41.7,458.2 -59.3,483.7 -23.5,483.7 	"/>
	<polyline fill="#B1D1A9" points="-23.5,463 -50.3,463 -23.5,432.8 	"/>
</g>
<g>
	<polygon fill="#B1D1A9" points="279.6,438.1 240.4,438.1 260,404.2 279.6,370.2 299.2,404.2 318.8,438.1 	"/>
	<polygon fill="#B1D1A9" points="141.1,491 101.9,491 121.5,457.1 141.1,423.1 160.7,457.1 180.3,491 	"/>
	<polygon fill="#B1D1A9" points="60.8,457 21.6,457 41.2,423 60.8,389 80.4,423 100,457 	"/>
	<polyline fill="#A6CCA9" points="60.8,389 80.4,423 100,457 60.8,457 	"/>
	<polyline fill="#A6CCA9" points="141.1,423.1 160.7,457.1 180.3,491 141.1,491 	"/>
	<polyline fill="#A6CCA9" points="279.6,370.2 299.2,404.2 318.8,438.1 279.6,438.1 	"/>
	<polyline fill="#B1D1A9" points="60.7,389 79,414.5 96.5,440 60.7,440 	"/>
	<polyline fill="#A6CCA9" points="60.7,419.3 86.8,419.3 60.7,389 	"/>
	<polyline fill="#A6CCA9" points="60.6,389 42.4,414.5 24.9,440 60.6,440 	"/>
	<polyline fill="#B1D1A9" points="60.6,419.3 33.8,419.3 60.6,389 	"/>
	<polyline fill="#B1D1A9" points="141.1,423.1 159.3,448.6 176.8,474 141.1,474 	"/>
	<polyline fill="#A6CCA9" points="141.1,453.3 167.2,453.3 141.1,423.1 	"/>
	<polyline fill="#A6CCA9" points="140.9,423.1 122.7,448.6 105.2,474 140.9,474 	"/>
	<polyline fill="#B1D1A9" points="140.9,453.3 114.2,453.3 140.9,423.1 	"/>
	<polyline fill="#B1D1A9" points="279.6,370.2 297.8,395.7 315.3,421.1 279.6,421.1 	"/>
	<polyline fill="#A6CCA9" points="279.6,400.4 305.7,400.4 279.6,370.2 	"/>
	<polyline fill="#A6CCA9" points="279.4,370.2 261.2,395.7 243.7,421.1 279.4,421.1 	"/>
	<polyline fill="#B1D1A9" points="279.4,400.4 252.7,400.4 279.4,370.2 	"/>
</g>
<g>
	<g>
		<path fill="#F1F1F2" d="M502.1,146.6c0,4.1-4.5,7.5-10.1,7.5h-89.2c-5.6,0-10.1-3.3-10.1-7.5l0,0c0-4.1,4.5-7.5,10.1-7.5H492
			C497.6,139.1,502.1,142.5,502.1,146.6L502.1,146.6z"/>
		<path fill="#F1F1F2" d="M486.5,119.4c0,12.2-9.9,22.2-22.2,22.2s-22.2-9.9-22.2-22.2s9.9-22.2,22.2-22.2S486.5,107.1,486.5,119.4z
			"/>
		<path fill="#F1F1F2" d="M491.2,133.5c0,6-4.9,10.8-10.8,10.8c-6,0-10.8-4.9-10.8-10.8c0-6,4.9-10.8,10.8-10.8
			C486.4,122.7,491.2,127.5,491.2,133.5z"/>
		<path fill="#F1F1F2" d="M449.7,123.1c0,9.6-7.8,17.5-17.5,17.5c-9.6,0-17.4-7.8-17.4-17.5c0-9.6,7.8-17.4,17.4-17.4
			C441.9,105.7,449.7,113.5,449.7,123.1z"/>
		<path fill="#F1F1F2" d="M428,139.2c0,6.5-5.3,11.8-11.8,11.8c-6.5,0-11.8-5.3-11.8-11.8c0-6.5,5.3-11.8,11.8-11.8
			C422.8,127.4,428,132.7,428,139.2z"/>
		<path fill="#F1F1F2" d="M455.4,140.1c0,6-4.9,10.8-10.8,10.8c-6,0-10.8-4.9-10.8-10.8c0-6,4.9-10.8,10.8-10.8
			C450.5,129.3,455.4,134.1,455.4,140.1z"/>
		<path fill="#F1F1F2" d="M412,143.4c0,5.7-4.6,10.4-10.4,10.4c-5.7,0-10.4-4.6-10.4-10.4c0-5.7,4.6-10.4,10.4-10.4
			C407.4,133,412,137.7,412,143.4z"/>
		<path fill="#F1F1F2" d="M505.4,140.1c0,5.5-4.4,9.9-9.9,9.9c-5.5,0-9.9-4.4-9.9-9.9c0-5.5,4.4-9.9,9.9-9.9
			C500.9,130.2,505.4,134.6,505.4,140.1z"/>
	</g>
	<g>
		<path fill="#F1F1F2" d="M291.5-31.9c0,6.9-7.5,12.4-16.8,12.4H126c-9.3,0-16.8-5.6-16.8-12.4l0,0c0-6.9,7.5-12.4,16.8-12.4h148.7
			C283.9-44.4,291.5-38.8,291.5-31.9L291.5-31.9z"/>
		<path fill="#F1F1F2" d="M284.7-75.2c0,20.4-16.5,36.9-36.9,36.9c-20.4,0-36.9-16.5-36.9-36.9c0-20.4,16.5-36.9,36.9-36.9
			C268.2-112.1,284.7-95.6,284.7-75.2z"/>
		<path fill="#F1F1F2" d="M273.4-53.7c0,10-8.1,18.1-18.1,18.1c-10,0-18.1-8.1-18.1-18.1s8.1-18.1,18.1-18.1
			C265.3-71.8,273.4-63.7,273.4-53.7z"/>
		<path fill="#F1F1F2" d="M238.8-65.2c0,16.1-13,29.1-29.1,29.1c-16.1,0-29.1-13-29.1-29.1c0-16.1,13-29.1,29.1-29.1
			C225.8-94.3,238.8-81.3,238.8-65.2z"/>
		<path fill="#F1F1F2" d="M183.9-50c0,10.9-8.8,19.6-19.6,19.6c-10.9,0-19.6-8.8-19.6-19.6c0-10.8,8.8-19.6,19.6-19.6
			C175.1-69.7,183.9-60.9,183.9-50z"/>
		<path fill="#F1F1F2" d="M213.6-42.7c0,10-8.1,18.1-18.1,18.1c-10,0-18.1-8.1-18.1-18.1c0-10,8.1-18.1,18.1-18.1
			C205.5-60.8,213.6-52.7,213.6-42.7z"/>
		<path fill="#F1F1F2" d="M148.6-37.2c0,9.5-7.7,17.3-17.3,17.3c-9.5,0-17.3-7.7-17.3-17.3s7.7-17.3,17.3-17.3
			C140.8-54.5,148.6-46.7,148.6-37.2z"/>
		<path fill="#F1F1F2" d="M296.9-42.7c0,9.1-7.4,16.5-16.5,16.5c-9.1,0-16.5-7.4-16.5-16.5c0-9.1,7.4-16.5,16.5-16.5
			C289.5-59.2,296.9-51.8,296.9-42.7z"/>
	</g>
	<g>
		<path fill="#F1F1F2" d="M284.1,175.3c0,2.9-3.2,5.3-7.2,5.3h-63.8c-4,0-7.2-2.4-7.2-5.3l0,0c0-2.9,3.2-5.3,7.2-5.3h63.8
			C280.9,169.9,284.1,172.3,284.1,175.3L284.1,175.3z"/>
		<path fill="#F1F1F2" d="M281.3,156.7c0,8.8-7.1,15.8-15.8,15.8c-8.7,0-15.8-7.1-15.8-15.8c0-8.7,7.1-15.8,15.8-15.8
			C274.2,140.9,281.3,148,281.3,156.7z"/>
		
			<ellipse transform="matrix(0.7071 -0.7071 0.7071 0.7071 -38.6477 238.544)" fill="#F1F1F2" cx="268.6" cy="165.9" rx="7.8" ry="7.8"/>
		<path fill="#F1F1F2" d="M261.6,161c0,6.9-5.6,12.5-12.5,12.5s-12.5-5.6-12.5-12.5s5.6-12.5,12.5-12.5S261.6,154.1,261.6,161z"/>
		<path fill="#F1F1F2" d="M238,167.5c0,4.7-3.8,8.4-8.4,8.4c-4.7,0-8.4-3.8-8.4-8.4c0-4.7,3.8-8.4,8.4-8.4
			C234.2,159.1,238,162.8,238,167.5z"/>
		<path fill="#F1F1F2" d="M250.8,170.6c0,4.3-3.5,7.8-7.8,7.8c-4.3,0-7.8-3.5-7.8-7.8c0-4.3,3.5-7.8,7.8-7.8
			C247.3,162.9,250.8,166.4,250.8,170.6z"/>
		<path fill="#F1F1F2" d="M222.8,173c0,4.1-3.3,7.4-7.4,7.4s-7.4-3.3-7.4-7.4s3.3-7.4,7.4-7.4S222.8,168.9,222.8,173z"/>
		<path fill="#F1F1F2" d="M286.5,170.6c0,3.9-3.2,7.1-7.1,7.1c-3.9,0-7.1-3.2-7.1-7.1c0-3.9,3.2-7.1,7.1-7.1
			C283.3,163.6,286.5,166.7,286.5,170.6z"/>
	</g>
	<g>
		<path fill="#F1F1F2" d="M577.6-76.8c0,3.3-5.3,6-11.9,6H460.2c-6.6,0-11.9-2.7-11.9-6l0,0c0-3.3,5.3-6,11.9-6h105.4
			C572.2-82.8,577.6-80.1,577.6-76.8L577.6-76.8z"/>
		<path fill="#F1F1F2" d="M553-102.8c0,12.4-10,22.4-22.4,22.4c-12.4,0-22.4-10-22.4-22.4s10-22.4,22.4-22.4
			C543-125.2,553-115.2,553-102.8z"/>
		<path fill="#F1F1F2" d="M528.5-97.8c0,8.8-7.1,15.9-15.9,15.9c-8.8,0-15.9-7.1-15.9-15.9c0-8.8,7.1-15.9,15.9-15.9
			C521.3-113.7,528.5-106.6,528.5-97.8z"/>
		<path fill="#F1F1F2" d="M558.8-88.4c0,7.6-6.1,13.7-13.7,13.7c-7.6,0-13.7-6.1-13.7-13.7s6.1-13.7,13.7-13.7
			C552.6-102.1,558.8-96,558.8-88.4z"/>
		<path fill="#F1F1F2" d="M501-90.6c0,8-6.5,14.4-14.5,14.4c-8,0-14.4-6.5-14.4-14.4c0-8,6.5-14.4,14.4-14.4
			C494.5-105,501-98.5,501-90.6z"/>
		<path fill="#F1F1F2" d="M532.8-93.4c0,12-9.7,21.7-21.7,21.7c-12,0-21.7-9.7-21.7-21.7c0-12,9.7-21.7,21.7-21.7
			C523.1-115.1,532.8-105.4,532.8-93.4z"/>
		<circle fill="#F1F1F2" cx="559.1" cy="-90.9" r="11.2"/>
	</g>
</g>
</svg>
