<svg xmlns="http://www.w3.org/2000/svg" width="59" height="59" viewBox="0 0 59 59">
  <g id="Grupo_205" data-name="Grupo 205" transform="translate(-747 -10727)">
    <g id="Elipse_13" data-name="Elipse 13" transform="translate(747 10727)" fill="none" stroke="#fff" stroke-width="2">
      <circle cx="29.5" cy="29.5" r="29.5" stroke="none"/>
      <circle cx="29.5" cy="29.5" r="28.5" fill="none"/>
    </g>
    <g id="Grupo_191" data-name="Grupo 191" transform="translate(733.521 10413.456)">
      <path id="Trazado_317" data-name="Trazado 317" d="M58.587,333.965l.9-.226a5.044,5.044,0,0,0-3.522-3.631l-.022-.007-.01,0a21.71,21.71,0,0,0-3.224-.382c-3.993-.266-9.723-.266-9.733-.266s-2.559,0-5.44.087c-1.439.042-2.963.107-4.3.2a19.786,19.786,0,0,0-3.239.422l-.012,0a5.04,5.04,0,0,0-3.522,3.631l-.007.027,0,.032a43.727,43.727,0,0,0-.7,7.8v.2l.931,0-.931-.005v.243a43.989,43.989,0,0,0,.7,7.82l.007.042.012.045A5.038,5.038,0,0,0,30,353.489l0,0a19.786,19.786,0,0,0,3.239.422c4,.293,9.723.29,9.736.29s2.559,0,5.44-.084c1.442-.042,2.963-.107,4.3-.206a19.786,19.786,0,0,0,3.239-.422l.012,0a5.045,5.045,0,0,0,3.522-3.628l.007-.032,0-.03a43.733,43.733,0,0,0,.7-7.78l0-.161v.007l0-.28a43.762,43.762,0,0,0-.7-7.783l0-.032-.007-.027-.9.226-.916.164a41.926,41.926,0,0,1,.668,7.453l0,.271v.007l0,.156a41.92,41.92,0,0,1-.668,7.45l.916.164-.9-.226a3.184,3.184,0,0,1-2.221,2.293l.253.9-.241-.9a18.917,18.917,0,0,1-2.891.362c-1.941.141-4.348.213-6.264.251s-3.338.035-3.34.035-2.534,0-5.383-.084c-1.424-.042-2.926-.107-4.219-.2a18.916,18.916,0,0,1-2.891-.362h0a3.179,3.179,0,0,1-2.221-2.2l-.9.253.916-.164a42.133,42.133,0,0,1-.67-7.49v-.437a41.844,41.844,0,0,1,.67-7.467l-.916-.166.9.226a3.175,3.175,0,0,1,2.221-2.293l-.253-.893.241.9a18.827,18.827,0,0,1,2.891-.365c1.938-.141,4.345-.213,6.261-.248s3.338-.037,3.34-.037,2.536,0,5.388.077c1.424.04,2.928.1,4.221.184a20.59,20.59,0,0,1,2.906.335l.221-.9-.253.9a3.189,3.189,0,0,1,2.221,2.291l.9-.226-.916.164Z" transform="translate(0)" fill="#fff"/>
      <path id="Trazado_318" data-name="Trazado 318" d="M31.912,343.139l.459.809,9.939-5.654-11.329-6.44v12.882l1.39-.789-.459-.809h.931v-8.085l5.7,3.243-7.09,4.033.459.809h0Z" transform="translate(7.738 3.562)" fill="#fff"/>
    </g>
  </g>
</svg>
