<svg xmlns="http://www.w3.org/2000/svg" width="59" height="59" viewBox="0 0 59 59">
  <g id="Grupo_206" data-name="Grupo 206" transform="translate(-474 -10727)">
    <g id="Grupo_202" data-name="Grupo 202">
      <g id="Elipse_14" data-name="Elipse 14" transform="translate(474 10727)" fill="none" stroke="#fff" stroke-width="2">
        <circle cx="29.5" cy="29.5" r="29.5" stroke="none"/>
        <circle cx="29.5" cy="29.5" r="28.5" fill="none"/>
      </g>
    </g>
    <path id="Trazado_322" data-name="Trazado 322" d="M60.692,287.235l-.524-.744a15.031,15.031,0,0,1-4.317,2.1l.262.87.686-.6a7.438,7.438,0,0,0-13.051,4.88l0,.1.909-.012H43.75V295.3h.909l-.019-.909-.385,0a14.632,14.632,0,0,1-11.97-6.22l-.921-1.314-.652,1.467a18.757,18.757,0,0,0-1.37,6.957,13.826,13.826,0,0,0,1.808,7.035,15.3,15.3,0,0,0,7.309,6.155l.368-.829-.509-.754a16.057,16.057,0,0,1-9.022,2.771l-.642-.01-3.748-.121,3.277,1.823A22.686,22.686,0,0,0,39.2,314.283a19.33,19.33,0,0,0,13.621-5.411c3.595-3.522,5.874-8.681,5.869-15.078a7.269,7.269,0,0,0-.133-1.379l-.892.17.638.647a12.159,12.159,0,0,0,3.277-5.782l.572-2.354-1.978,1.394.524.744-.882-.216a10.387,10.387,0,0,1-2.788,4.918l-.347.339.092.478a5.575,5.575,0,0,1,.1,1.04c0,5.971-2.092,10.6-5.326,13.778A17.5,17.5,0,0,1,39.2,312.465a20.871,20.871,0,0,1-10.128-2.7l-.444.8-.027.907c.23.007.463.012.7.012a17.878,17.878,0,0,0,10.043-3.083l1.353-.919L39.2,306.81A13.482,13.482,0,0,1,32.72,301.4a12.007,12.007,0,0,1-1.561-6.118,17.156,17.156,0,0,1,.613-4.436c.153-.565.308-1.018.419-1.326l.136-.352.044-.1-.829-.368-.744.521a16.439,16.439,0,0,0,13.456,6.993l.424,0,.89-.019v-2.359l0-.078a5.619,5.619,0,0,1,9.861-3.687l.385.444.562-.17a16.775,16.775,0,0,0,4.841-2.359l-.524-.742-.882-.216Z" transform="translate(459.975 10457.811)" fill="#fff"/>
  </g>
</svg>
