<svg xmlns="http://www.w3.org/2000/svg" width="59" height="59" viewBox="0 0 59 59">
  <g id="Grupo_204" data-name="Grupo 204" transform="translate(-656 -10727)">
    <g id="Elipse_12" data-name="Elipse 12" transform="translate(656 10727)" fill="none" stroke="#fff" stroke-width="2">
      <circle cx="29.5" cy="29.5" r="29.5" stroke="none"/>
      <circle cx="29.5" cy="29.5" r="28.5" fill="none"/>
    </g>
    <g id="Grupo_190" data-name="Grupo 190" transform="translate(644.668 10546.607)">
      <path id="Trazado_314" data-name="Trazado 314" d="M33.455,195.137v1.046H48.211a6.339,6.339,0,0,1,6.331,6.331v14.758a6.339,6.339,0,0,1-6.331,6.33H33.455a6.341,6.341,0,0,1-6.333-6.33V202.514a6.341,6.341,0,0,1,6.333-6.331v-2.093a8.424,8.424,0,0,0-8.425,8.423v14.758a8.423,8.423,0,0,0,8.425,8.423H48.211a8.423,8.423,0,0,0,8.423-8.423V202.514a8.423,8.423,0,0,0-8.423-8.423H33.455Z" transform="translate(0 0)" fill="#fff"/>
      <path id="Trazado_315" data-name="Trazado 315" d="M42.079,204.375l-1.036.153a4.691,4.691,0,0,1,.054.72,4.861,4.861,0,0,1-4.146,4.8h0a4.923,4.923,0,0,1-.72.052,4.858,4.858,0,0,1-4.8-4.144,4.7,4.7,0,0,1-.054-.722,4.856,4.856,0,0,1,4.144-4.794h0a4.867,4.867,0,0,1,1.423,0h0a4.857,4.857,0,0,1,4.089,4.091l1.036-.153,1.036-.155a6.951,6.951,0,0,0-7.9-5.853l-.517.077.519-.077a6.946,6.946,0,0,0-5.931,6.864,7.1,7.1,0,0,0,.075,1.028,6.952,6.952,0,0,0,6.868,5.931,6.841,6.841,0,0,0,1.025-.075h0a6.952,6.952,0,0,0,5.929-6.866,7.088,7.088,0,0,0-.075-1.025Z" transform="translate(4.655 4.589)" fill="#fff"/>
    </g>
    <circle id="Elipse_15" data-name="Elipse 15" cx="1" cy="1" r="1" transform="translate(693 10747)" fill="#fff"/>
  </g>
</svg>
