<svg id="Grupo_214" data-name="Grupo 214" xmlns="http://www.w3.org/2000/svg" xmlns:xlink="http://www.w3.org/1999/xlink" width="20.688" height="20.717" viewBox="0 0 20.688 20.717">
  <defs>
    <clipPath id="clip-path">
      <rect id="Rectángulo_230" data-name="Rectángulo 230" width="20.688" height="20.717" fill="none"/>
    </clipPath>
  </defs>
  <g id="Grupo_213" data-name="Grupo 213" clip-path="url(#clip-path)">
    <path id="Trazado_367" data-name="Trazado 367" d="M0,4.75A3.087,3.087,0,0,1,.834,2.619C1.551,1.9,2.239,1.16,2.968.458A1.213,1.213,0,0,1,4.894.494Q6.3,1.87,7.671,3.277a1.234,1.234,0,0,1-.03,1.97c-.375.383-.779.741-1.121,1.152a.681.681,0,0,0-.092.6A15.828,15.828,0,0,0,13.7,14.279a.739.739,0,0,0,.641-.132c.424-.356.788-.782,1.191-1.165a1.154,1.154,0,0,1,1.788-.025q1.522,1.466,2.983,3a1.125,1.125,0,0,1,0,1.7c-.762.809-1.538,1.61-2.365,2.35a3.311,3.311,0,0,1-3.147.556,14.725,14.725,0,0,1-5.792-3.05A29.2,29.2,0,0,1,1.284,8.778,9.472,9.472,0,0,1,0,4.75" transform="translate(0 0)" fill="#fff"/>
  </g>
</svg>
